<svg width="20" height="20" viewBox="0 0 20 20" fill="none" xmlns="http://www.w3.org/2000/svg">
<path d="M3.88892 14.0217C3.88892 14.8068 4.04698 15.5842 4.3541 16.3095C4.66121 17.0348 5.11135 17.6939 5.67882 18.249C6.24629 18.8041 6.91997 19.2445 7.66141 19.5449C8.40284 19.8454 9.1975 20 10 20C10.8025 20 11.5972 19.8454 12.3386 19.5449C13.0801 19.2445 13.7538 18.8041 14.3212 18.249C14.8887 17.6939 15.3388 17.0348 15.646 16.3095C15.9531 15.5842 16.1111 14.8068 16.1111 14.0217C16.1111 12.4362 15.4673 10.9156 14.3212 9.79446C13.1752 8.67332 11.6208 8.04347 10 8.04347C8.37926 8.04347 6.82487 8.67332 5.67882 9.79446C4.53276 10.9156 3.88892 12.4362 3.88892 14.0217Z" fill="#FFC53B"/>
<path d="M10 5.43478C9.05557 5.43478 8.33334 4.72826 8.33334 3.80435V1.63043C8.33334 0.706522 9.05557 0 10 0C10.9445 0 11.6667 0.706522 11.6667 1.63043V3.80435C11.6667 4.67391 10.9445 5.43478 10 5.43478Z" fill="#33A6B8"/>
<path d="M16.3334 16.5218H3.66669C2.55558 16.5218 1.66669 15.6522 1.66669 14.5652V9.89133C1.66669 5.38046 5.38891 1.73915 10 1.73915C14.6111 1.73915 18.3334 5.38046 18.3334 9.89133V14.5652C18.3334 15.6522 17.4445 16.5218 16.3334 16.5218Z" fill="#33A6B8"/>
<path d="M18.3333 16.5217H1.66667C0.722222 16.5217 0 15.8152 0 14.8913C0 13.9674 0.722222 13.2609 1.66667 13.2609H18.3333C19.2778 13.2609 20 13.9674 20 14.8913C20 15.8152 19.2778 16.5217 18.3333 16.5217Z" fill="#33A6B8"/>
</svg>
