<svg width="20" height="20" viewBox="0 0 20 20" fill="none" xmlns="http://www.w3.org/2000/svg">
<g clip-path="url(#clip0_120_2135)">
<path d="M6.66684 19C6.66681 19.1313 6.753 19.2614 6.9205 19.3827C7.088 19.504 7.33353 19.6143 7.64306 19.7072C7.95259 19.8 8.32007 19.8737 8.7245 19.9239C9.12894 19.9742 9.56241 20.0001 10.0002 20.0001C10.4379 20.0001 10.8714 19.9742 11.2758 19.9239C11.6803 19.8737 12.0478 19.8 12.3573 19.7072C12.6668 19.6143 12.9123 19.504 13.0798 19.3827C13.2473 19.2614 13.3335 19.1313 13.3335 19C13.3335 18.8687 13.2473 18.7386 13.0798 18.6173C12.9123 18.496 12.6668 18.3857 12.3573 18.2928C12.0478 18.2 11.6803 18.1263 11.2758 18.0761C10.8714 18.0258 10.4379 17.9999 10.0002 17.9999C9.56241 17.9999 9.12894 18.0258 8.7245 18.0761C8.32007 18.1263 7.95259 18.2 7.64306 18.2928C7.33353 18.3857 7.088 18.496 6.9205 18.6173C6.753 18.7386 6.66681 18.8687 6.66684 19Z" fill="#282B32" fill-opacity="0.2"/>
<path d="M15.6502 2.272C17.1615 3.73333 18.0002 5.67333 18.0002 7.73667C18.0002 9.8 17.1615 11.74 15.6502 13.2013L12.9615 15.778C12.4235 16.2927 11.4349 17.478 9.99686 19.3333C8.71686 17.63 7.75752 16.472 7.11752 15.8587L4.34419 13.2013C3.60364 12.4968 3.01402 11.6491 2.61113 10.7097C2.20824 9.7703 2.00049 8.75881 2.00049 7.73667C2.00049 6.71452 2.20824 5.70304 2.61113 4.76364C3.01402 3.82425 3.60364 2.97654 4.34419 2.272C5.85552 0.810667 7.86286 0 9.99752 0C12.1309 0 14.1382 0.810667 15.6502 2.272Z" fill="#33A6B8"/>
<path d="M9.93018 8.76334C9.95246 8.77267 9.97637 8.77748 10.0005 8.77748C10.0247 8.77748 10.0486 8.77267 10.0708 8.76334L12.4775 7.71267V9.21734C12.477 9.24655 12.4681 9.275 12.4519 9.29933C12.4357 9.32366 12.4129 9.34286 12.3862 9.35467L10.0742 10.428C10.051 10.4388 10.0257 10.4443 10.0002 10.4443C9.97462 10.4443 9.94937 10.4388 9.92618 10.428L6.99952 9.35601C6.97259 9.34447 6.94961 9.32534 6.93339 9.30095C6.91717 9.27656 6.90841 9.24796 6.90818 9.21867V7.71267L9.93018 8.76334ZM13.5015 5.99534V9.59467C13.5015 9.75067 13.3635 9.87734 13.1948 9.87734C13.0248 9.87734 12.8868 9.75067 12.8868 9.59467V6.11267L12.4788 6.20067V7.24534L10.0015 8.32601L6.90818 7.24534V6.16534L6.10618 5.92667C6.07599 5.91689 6.04958 5.89797 6.03059 5.87253C6.01161 5.8471 6.00098 5.8164 6.00018 5.78467C6.00112 5.75306 6.01181 5.72251 6.03078 5.69721C6.04976 5.6719 6.0761 5.65309 6.10618 5.64334L9.93952 4.23267C9.97871 4.21846 10.0217 4.21846 10.0609 4.23267L13.8955 5.64334C13.9582 5.66667 14.0002 5.72267 14.0002 5.78467C13.9996 5.81626 13.9892 5.84689 13.9704 5.87232C13.9517 5.89775 13.9255 5.91674 13.8955 5.92667L13.5022 5.99534H13.5015Z" fill="#FFC53B"/>
</g>
<defs>
<clipPath id="clip0_120_2135">
<rect width="20" height="20" fill="white"/>
</clipPath>
</defs>
</svg>
