<svg width="18" height="18" viewBox="0 0 18 18" fill="none" xmlns="http://www.w3.org/2000/svg">
<path d="M0 9.69231H8.30769V18H0V9.69231ZM2.76923 12.4615V15.2308H5.53846V12.4615H2.76923ZM0 0H8.30769V8.30769H0V0ZM2.76923 2.76923V5.53846H5.53846V2.76923H2.76923ZM9.69231 0H18V8.30769H9.69231V0ZM12.4615 2.76923V5.53846H15.2308V2.76923H12.4615Z" fill="#33A6B8"/>
<path d="M12.4614 12.4615H15.2306V9.69231H17.9998V13.8462H15.2306V15.2308H12.4614V13.8462H9.69214V9.69231H12.4614V12.4615ZM15.2306 15.2308H17.9998V18H15.2306V15.2308ZM9.69214 15.2308H12.4614V18H9.69214V15.2308Z" fill="#FFC53B"/>
</svg>
