<svg width="122" height="122" viewBox="0 0 122 122" fill="none" xmlns="http://www.w3.org/2000/svg">
<path d="M109.228 15.5002L108.382 14.9165L107.501 14.3922L106.571 13.9276L105.618 13.5225L104.617 13.1889L103.593 12.9268L102.008 12.6647L101.198 12.6051L100.352 12.5813L99.3276 12.617L98.3268 12.7124L97.3617 12.8792L96.4086 13.1055L95.4674 13.3915L94.5739 13.725L93.7041 14.1301L92.8701 14.5709L92.06 15.0833L91.2856 15.6313L90.5588 16.227L89.8678 16.8584L89.2125 17.5495L88.6049 18.2643L88.0569 19.0268L87.5446 19.825L87.0918 20.659L86.6867 21.5168L86.3412 22.3985L86.0553 23.3278L85.8289 24.2571L85.6621 25.2221L85.5549 26.1991L85.5192 27.2237L85.5549 28.3317L85.6383 29.404L85.7694 30.4286L85.9481 31.4174L86.1864 32.4063L86.7582 34.2649L87.1037 35.1346L87.628 36.2903L88.1879 37.3745L88.8075 38.3872L89.4627 39.3879L90.8805 41.2227L92.1315 42.2354L93.2633 43.0694L94.3594 43.82L96.1108 44.8684L97.183 45.4165L98.2315 44.8803L99.9352 43.8557L101.019 43.129L102.139 42.3069L103.366 41.318L104.165 40.6151L105.821 38.9709L106.619 38.0774L107.405 37.1243L108.168 36.0758L108.692 35.2776L109.681 33.562L110.134 32.6327L110.539 31.7034L110.908 30.7145L111.23 29.6899L111.504 28.6295L111.718 27.5573L111.873 26.4374L111.968 25.2579L112.004 24.0426L111.968 22.9823L111.861 21.9458L111.682 20.945L111.432 19.9561L111.111 19.003L110.729 18.0737L110.289 17.1801L109.788 16.3223L109.228 15.5002ZM90.7971 24.1022L90.8328 23.4588L90.9282 22.8393L91.083 22.2555L91.2975 21.6836L91.5596 21.1356L91.8813 20.6233L92.2387 20.1467L92.6438 19.7059L93.0965 19.3008L93.5731 18.9434L94.0973 18.6336L94.6573 18.3596L95.2291 18.1571L95.8248 18.0022L96.4563 17.9069L97.1115 17.8711L97.7549 17.9069L98.3744 18.0022L98.9582 18.1452L99.5301 18.3477L100.078 18.6098L100.59 18.9077L101.079 19.2651L101.52 19.6583L101.937 20.0872L102.306 20.5637L102.616 21.0641L102.902 21.6002L103.128 22.184L103.295 22.8036L103.39 23.4469L103.426 24.1022L103.39 24.7456L103.295 25.3651L103.14 25.9608L102.926 26.5208L102.664 27.0688L102.342 27.5811L101.984 28.0577L101.579 28.5104L101.127 28.9036L100.638 29.261L100.126 29.5708L99.5658 29.8448L98.994 30.0473L98.3864 30.2022L97.7668 30.2975L97.1115 30.3333L96.4205 30.2975L95.7533 30.1903L95.11 30.0235L94.5024 29.7852L93.9662 29.5112L93.4778 29.2014L93.0131 28.844L92.5723 28.4389L92.1791 27.9981L91.8336 27.5215L91.5358 27.0211L91.2737 26.485L91.0711 25.9251L90.9282 25.3413L90.8328 24.7336L90.7971 24.1022Z" fill="#E96762"/>
<path d="M85.5191 27.2236L85.5549 28.3316L85.6383 29.4039L85.7693 30.4285L85.948 31.4173L86.1863 32.4062L86.7582 34.2648L87.1037 35.1345L87.6279 36.2902L88.1879 37.3744L88.8074 38.3871L89.4627 39.3878L90.1537 40.3171L90.8685 41.1869L89.2601 39.7095L88.4261 38.8517L87.6398 37.9701L86.8773 37.005L86.1267 35.9804L85.6025 35.1822L84.6256 33.4785L84.1847 32.5492L83.7916 31.6199L83.4342 30.6548L83.1125 29.6421L82.8504 28.5818L82.6359 27.5095L82.481 26.4015L82.3857 25.2459L82.35 24.0425L82.3857 23.0298L82.481 22.041L82.6478 21.0759L82.8742 20.1466L83.1601 19.2173L83.5056 18.3357L83.9107 17.4779L84.3634 16.6439L84.8758 15.8457L85.4357 15.0951L86.0314 14.3683L86.6867 13.6892L87.3777 13.0458L88.1045 12.4501L88.8789 11.9021L89.689 11.4017L90.523 10.949L91.3927 10.5558L92.2982 10.2103L93.2275 9.92437L94.1806 9.698L95.1457 9.5312L96.1465 9.43589L97.183 9.40015L98.1123 9.42397L99.0297 9.50737L99.9113 9.65034L100.781 9.82905L101.639 10.0792L102.473 10.3652L103.283 10.6869L104.057 11.0681L104.82 11.4851L105.547 11.9498L106.25 12.4501L106.917 12.9863L107.548 13.5701L108.144 14.1777L108.704 14.821L109.228 15.5001L108.382 14.9164L107.501 14.3921L106.571 13.9275L105.618 13.5224L104.617 13.1888L103.593 12.9267L102.008 12.6646L100.352 12.5812L99.3275 12.6169L98.3267 12.7123L97.3617 12.8791L96.4086 13.1054L95.4793 13.3914L94.5738 13.725L93.7041 14.13L92.8701 14.5708L92.0599 15.0832L91.2855 15.6312L90.5588 16.2269L89.8677 16.8583L89.2125 17.5494L88.6168 18.2642L88.0568 19.0267L87.5445 19.825L87.0918 20.6589L86.6867 21.5167L86.3412 22.3984L86.0552 23.3277L85.8289 24.257L85.6621 25.222L85.5549 26.199L85.5191 27.2236Z" fill="#FF9C9C"/>
<path d="M10.3057 111.111L14.7615 96.2776L10.3057 81.4446L37.851 96.2776L10.3057 111.111Z" fill="#35C1E6"/>
<path d="M14.7615 96.2776L10.3057 81.4446L37.851 96.2776H14.7615Z" fill="#AEE6F5"/>
<path d="M97.1711 47.7516L95.5746 46.9891L94.002 46.1075L93.0131 45.4879L91.0473 44.1059L89.3316 42.712L88.4738 41.9375L86.7106 40.1624L85.8766 39.1973L85.0545 38.1608L84.2443 37.0409L83.6844 36.1711L82.6479 34.3125L82.1832 33.3237L81.7543 32.311L81.3731 31.2506L81.0395 30.1426L80.7535 28.987L80.5272 27.8313L80.3723 26.628L80.265 25.3651L80.2293 24.0426L80.2531 23.1133L80.3246 22.2079L80.4557 21.3143L80.6225 20.4446L80.8369 19.5868L81.1705 18.5383L81.5637 17.5137L82.0164 16.5368L82.5406 15.5836L83.1244 14.6782L83.7678 13.8084L84.4588 12.9745L85.1975 12.2L85.9838 11.4614L86.8297 10.7823L87.6994 10.1508L88.6287 9.56704L89.5938 9.05474L90.5826 8.602L91.6072 8.20884L92.6795 7.87524L93.7637 7.62505L94.8717 7.43442L96.0035 7.31528L97.183 7.27954L98.3506 7.31528L99.4824 7.43442L100.602 7.62505L101.675 7.87524L102.747 8.20884L103.771 8.602L104.772 9.05474L105.725 9.56704L106.655 10.1508L107.536 10.7823L108.37 11.4614L109.157 12.2L109.907 12.9745L110.598 13.8084L111.23 14.6782L111.813 15.5836L112.338 16.5368L112.79 17.5137L113.184 18.5383L113.517 19.5868L113.744 20.4446L113.91 21.3143L114.029 22.2079L114.101 23.1133L114.125 24.0426L114.089 24.4239L113.994 24.7932L113.839 25.1387L113.624 25.4485L113.374 25.7106L113.076 25.937L112.755 26.1157L112.397 26.211L112.016 26.2586L111.623 26.2229L111.265 26.1276L110.944 25.9846L110.646 25.794L110.396 25.5557L110.181 25.2698L110.026 24.96L109.931 24.6145L109.86 23.2086L109.788 22.3985L109.657 21.6122L109.478 20.8377L109.24 20.0872L108.895 19.1579L108.466 18.2881L107.989 17.4422L107.441 16.644L106.821 15.8934L106.166 15.1905L105.451 14.5352L104.689 13.9395L103.867 13.3915L103.021 12.9149L102.127 12.5098L101.198 12.1524L100.436 11.926L99.6492 11.7473L98.851 11.6282L98.0289 11.5448L97.183 11.5209L96.3371 11.5448L95.515 11.6282L94.7049 11.7473L93.9305 11.926L93.168 12.1524L92.2268 12.5098L91.3332 12.9149L90.4873 13.3915L89.6772 13.9395L88.9027 14.5352L88.1879 15.1905L87.5326 15.8934L86.925 16.644L86.377 17.4422L85.8885 18.2881L85.4715 19.1579L85.1141 20.0872L84.8877 20.8377L84.709 21.6122L84.5779 22.3985L84.4945 23.2086L84.4707 24.0426L84.5065 25.234L84.6137 26.3659L84.7805 27.45L85.0068 28.4866L85.3047 29.5231L85.6502 30.512L86.0315 31.4532L86.4604 32.3586L86.9369 33.2403L87.9734 34.8844L88.5215 35.635L89.3078 36.612L90.1061 37.5174L90.9162 38.3395L91.7502 39.1377L93.3467 40.4721L94.5143 41.3538L95.527 42.0329L97.183 43.0336L98.6008 42.1877L100.447 40.9249L101.46 40.1385L102.544 39.2211L103.962 37.851L105.368 36.2665L106.035 35.4086L106.679 34.4913L107.274 33.5381L107.822 32.5374L108.525 31.1315L108.752 30.8456L109.026 30.6073L109.347 30.4167L109.681 30.2975L110.026 30.2141L110.396 30.2022L110.765 30.2618L111.122 30.3809L111.468 30.5715L111.754 30.7979L111.992 31.0838L112.183 31.3936L112.302 31.7272L112.385 32.0846L112.397 32.442L112.338 32.8114L112.219 33.1807L111.742 34.1934L111.23 35.1584L110.134 36.9575L109.323 38.1012L108.489 39.1497L107.644 40.1266L106.75 41.0678L105.868 41.9256L105.011 42.7L104.117 43.4506L102.473 44.7016L101.293 45.5118L99.3871 46.6674L98.0527 47.3465L97.1711 47.7516ZM97.1115 32.454L96.4086 32.4182L95.7414 32.3348L95.0861 32.2038L94.4547 32.025L93.8352 31.7868L93.2395 31.5127L92.6795 31.203L92.1315 30.8336L91.6311 30.4405L91.1545 29.9997L90.7137 29.535L90.3086 29.0346L89.9512 28.4985L89.6295 27.9385L89.3436 27.3547L89.1172 26.7352L88.9266 26.1157L88.7955 25.4604L88.7121 24.7932L88.6764 24.1022L88.7121 23.4112L88.7955 22.744L88.9266 22.1006L89.1172 21.4692L89.3436 20.8497L89.6295 20.2659L89.9512 19.7059L90.3086 19.1817L90.7137 18.6694L91.1545 18.2047L91.6311 17.7639L92.1315 17.3708L92.6795 17.0133L93.2395 16.6917L93.8352 16.4176L94.4547 16.1793L95.0861 16.0006L95.7414 15.8696L96.4086 15.7862L97.1115 15.7504L97.8145 15.7862L98.4816 15.8696L99.1369 16.0006L99.7803 16.1793L100.4 16.4176L100.984 16.6917L101.555 17.0133L102.092 17.3708L102.604 17.7639L103.069 18.2047L103.509 18.6694L103.914 19.1817L104.284 19.7059L104.605 20.2659L104.879 20.8497L105.118 21.4692L105.296 22.1006L105.439 22.744L105.523 23.4112L105.547 24.1022L105.523 24.7932L105.439 25.4604L105.296 26.1157L105.118 26.7352L104.879 27.3547L104.605 27.9385L104.284 28.4985L103.914 29.0346L103.509 29.535L103.069 29.9997L102.604 30.4405L102.092 30.8336L101.555 31.203L100.984 31.5127L100.4 31.7868L99.7803 32.025L99.1369 32.2038L98.4816 32.3348L97.8145 32.4182L97.1115 32.454ZM97.1115 19.9918L96.5397 20.0276L95.9916 20.1348L95.4793 20.3135L94.9908 20.5518L94.55 20.8497L94.1449 21.1952L93.7875 21.5883L93.4897 22.0292L93.2514 22.5057L93.0727 23.0061L92.9535 23.5422L92.9178 24.1022L92.9535 24.6622L93.0727 25.1983L93.2514 25.6987L93.4897 26.1752L93.7875 26.6161L94.1449 27.0092L94.55 27.3547L94.9908 27.6526L95.4793 27.8909L95.9916 28.0696L96.5397 28.1768L97.1115 28.2126L97.6834 28.1768L98.2315 28.0696L98.7438 27.8909L99.2322 27.6526L99.6731 27.3547L100.078 27.0092L100.436 26.6161L100.733 26.1752L100.984 25.6987L101.162 25.1983L101.27 24.6622L101.305 24.1022L101.27 23.5422L101.162 23.0061L100.984 22.5057L100.733 22.0292L100.436 21.5883L100.078 21.1952L99.6731 20.8497L99.2322 20.5518L98.7438 20.3135L98.2315 20.1348L97.6834 20.0276L97.1115 19.9918Z" fill="#22104F"/>
<path d="M10.3056 113.219L9.94822 113.196L9.60271 113.1L9.26912 112.957L8.95935 112.743L8.75681 112.552L8.5781 112.338L8.31599 111.849L8.19685 111.325L8.18494 111.051L8.28025 110.491L10.3771 103.545L10.5201 103.188L10.7107 102.866L10.9609 102.604L11.2469 102.378L11.5685 102.211L11.914 102.092L12.2715 102.044H12.6408L13.0101 102.127L13.3795 102.27L13.6892 102.473L13.9513 102.711L14.1777 102.997L14.3445 103.319L14.4636 103.664L14.5232 104.022L14.5113 104.391L14.4279 104.772L13.8203 106.81L33.3832 96.2657L13.8084 85.7336L16.7988 95.658L16.8941 96.2657L16.8584 96.6588L16.7631 97.0162L16.6082 97.3379L16.3937 97.6358L16.1435 97.8979L15.8457 98.1123L15.5121 98.2672L15.1666 98.3625L14.7734 98.3983L14.4398 98.3744L14.1301 98.303L13.5582 98.017L13.1054 97.6L12.9267 97.3379L12.7957 97.052L8.20877 81.7782L8.18494 81.4922L8.24451 80.9561L8.43513 80.4438L8.75681 79.991L8.95935 79.8004L9.43591 79.5026L9.69802 79.4073L10.2342 79.3239L10.7822 79.3715L11.3064 79.5741L38.8517 94.4071L39.1734 94.6215L39.4474 94.8836L39.6619 95.1815L39.8287 95.527L39.9359 95.8844L39.9717 96.2657L39.9359 96.6588L39.8287 97.0162L39.6619 97.3617L39.4474 97.6596L39.1734 97.9217L38.8517 98.1362L11.3064 112.969L10.9847 113.112L10.6511 113.196L10.3056 113.219Z" fill="#22104F"/>
<path d="M97.183 51.7785H37.851L37.4578 51.7428L37.1123 51.6475L36.7787 51.4926L36.4809 51.2781L36.2307 51.0279L36.0162 50.7301L35.8613 50.3965L35.766 50.0391L35.7303 49.6578L35.766 49.2766L35.8613 48.9191L36.0162 48.5855L36.2307 48.2877L36.4809 48.0375L36.7787 47.823L37.1123 47.6682L37.4578 47.5729L37.851 47.5371H97.183L97.5643 47.5729L97.9217 47.6682L98.2434 47.823L98.5412 48.0375L98.7914 48.2877L99.0059 48.5855L99.1608 48.9191L99.2561 49.2766L99.2918 49.6578L99.2561 50.0391L99.1608 50.3965L99.0059 50.7301L98.7914 51.0279L98.5412 51.2781L98.2434 51.4926L97.9217 51.6475L97.5643 51.7428L97.183 51.7785Z" fill="#FFE4CF"/>
<path d="M94.0019 98.3863H44.2012L43.8199 98.3506L43.4625 98.2553L43.1408 98.1004L42.843 97.8859L42.5808 97.6357L42.3783 97.3379L42.2234 97.0162L42.1281 96.6588L42.0924 96.2775L42.1281 95.8844L42.2234 95.527L42.3783 95.2053L42.5808 94.9074L42.843 94.6572L43.1408 94.4428L43.4625 94.2879L43.8199 94.1926L44.2012 94.1568H94.0019L94.7883 94.1211L95.5508 94.0258L96.2894 93.8709L97.0043 93.6684L97.7072 93.4062L98.3744 93.0846L99.0178 92.7271L99.6254 92.3102L100.197 91.8574L100.733 91.357L101.234 90.8209L101.687 90.249L102.104 89.6414L102.461 88.998L102.783 88.3309L103.045 87.6279L103.259 86.9131L103.402 86.1744L103.497 85.4119L103.533 84.6256L103.497 83.7678L103.39 82.9457L103.212 82.1356L102.961 81.3492L102.652 80.5867L102.27 79.86L101.818 79.157L101.317 78.5018L100.745 77.8703L100.114 77.2984L99.4586 76.798L98.7557 76.3572L98.0289 75.976L97.2664 75.6543L96.4801 75.4041L95.6699 75.2254L94.8478 75.1182L94.0019 75.0824H28.3197L27.3666 75.0467L26.4373 74.9633L25.5318 74.8084L24.6621 74.5939L23.7924 74.3199L22.9584 73.9982L22.1482 73.6289L21.3738 73.2L20.6113 72.7234L19.8965 72.2111L19.2293 71.6512L18.574 71.0436L17.9783 70.4002L17.4183 69.7211L16.8941 69.0063L16.4295 68.2557L16.0006 67.4813L15.6312 66.6711L15.3096 65.8371L15.0355 64.9674L14.8211 64.0857L14.6662 63.1922L14.5709 62.2629L14.5471 61.3098L14.5709 60.3924L14.6543 59.4869L14.8092 58.6053L15.0117 57.7236L15.2738 56.8658L15.5836 56.0318L15.9529 55.2217L16.3699 54.4354L16.8465 53.6729L17.3707 52.9461L17.9426 52.2432L18.574 51.576L19.2412 50.9445L19.9441 50.3607L20.6709 49.8484L21.4334 49.3719L22.2316 48.943L23.0418 48.5855L23.8758 48.2639L24.7336 48.0018L25.6033 47.7992L26.4849 47.6562L27.3904 47.5729L29.3682 47.5371L29.7613 47.5729L30.1187 47.6682L30.4404 47.823L30.7383 48.0375L30.9885 48.2877L31.2029 48.5855L31.3578 48.9191L31.4531 49.2766L31.4889 49.6578L31.4531 50.0391L31.3578 50.3965L31.2029 50.7301L30.9885 51.0279L30.7383 51.2781L30.4404 51.4926L30.1187 51.6475L29.7613 51.7428L27.4619 51.8143L26.6398 51.9215L25.8297 52.1002L25.0433 52.3504L24.2808 52.6602L23.5541 53.0414L22.8512 53.4822L22.1959 53.9945L21.5644 54.5664L20.9926 55.1979L20.4922 55.8531L20.0514 56.5441L19.6701 57.2828L19.3484 58.0453L19.0982 58.8316L18.9195 59.6418L18.8123 60.4639L18.7766 61.3098L18.8123 62.0961L18.9076 62.8705L19.0625 63.6092L19.265 64.324L19.5271 65.027L19.8488 65.6941L20.2062 66.3256L20.6232 66.9332L21.076 67.517L21.5764 68.0531L22.1125 68.5416L22.6844 69.0063L23.292 69.4113L23.9353 69.7807L24.6025 70.0904L25.3055 70.3645L26.0203 70.567L26.759 70.7219L27.5215 70.8172L28.3197 70.841H94.0019L94.9193 70.8768L95.8248 70.9602L96.7064 71.115L97.5762 71.3176L98.434 71.5678L99.268 71.8895L100.09 72.2588L100.876 72.6758L101.639 73.1523L102.366 73.6766L103.069 74.2484L103.736 74.8799L104.367 75.5471L104.939 76.25L105.463 76.9768L105.94 77.7393L106.357 78.5256L106.726 79.3477L107.048 80.1816L107.298 81.0395L107.501 81.9092L107.655 82.7908L107.739 83.6963L107.775 84.6137L107.739 85.5668L107.644 86.4961L107.489 87.4016L107.274 88.2713L107.012 89.141L106.69 89.975L106.309 90.7852L105.892 91.5596L105.416 92.3102L104.891 93.025L104.331 93.7041L103.736 94.3475L103.092 94.9551L102.413 95.515L101.698 96.0393L100.948 96.5039L100.162 96.9328L99.3633 97.3022L98.5174 97.6238L97.6596 97.8979L96.7779 98.1123L95.8725 98.2672L94.9551 98.3625L94.0019 98.3863Z" fill="#FFE4CF"/>
<path d="M46.75 52.25H49.9375C50.3125 52.25 50.6875 52.0625 51.0625 51.875L53.5 49.4375C53.875 48.875 54.625 48.5 55.5625 48.5H56.125C54.0625 48.5 52.375 46.8125 52.375 44.75C52.375 42.6875 54.0625 41 56.125 41C58.1875 41 59.875 42.6875 59.875 44.75C59.875 46.0625 59.125 47.375 58 47.9375L58.375 48.5H62.125C64.1875 48.5 66.4375 49.4375 67.75 51.3125L68.875 52.8125C69.625 53.5625 69.25 54.6875 68.5 55.25C67.75 55.625 66.8125 55.4375 66.25 54.6875L65.3125 53.375C64.75 52.625 64 52.25 63.0625 52.25H61.5625L62.875 55.25C63.4375 56.375 63.625 57.5 63.625 58.8125V62.5625C63.625 63.125 64 63.5 64.5625 63.5H69.25C70.375 63.5 71.125 64.25 71.125 65.375C71.125 66.5 70.375 67.25 69.25 67.25H62.6875C61.1875 67.25 59.875 65.9375 59.875 64.4375V59.75L52.75 68.1875C51.625 69.875 49.5625 71 47.5 71H45.8125L55.9375 58.4375C56.5 57.6875 56.3125 56.9375 55.9375 56L54.8125 53.1875L53.5 54.6875C52.75 55.4375 51.625 56 50.5 56H46.75C45.625 56 44.875 55.25 44.875 54.125C44.875 53 45.625 52.25 46.75 52.25Z" fill="#FDBB2C"/>
</svg>
