<svg width="18" height="7" viewBox="0 0 18 7" fill="none" xmlns="http://www.w3.org/2000/svg">
<path d="M11.2737 3.50554C11.2736 3.94722 11.3606 4.38458 11.5296 4.79265C11.6986 5.20072 11.9463 5.5715 12.2586 5.88383C12.5709 6.19615 12.9417 6.44391 13.3498 6.61294C13.7578 6.78197 14.1952 6.86897 14.6368 6.86897C15.0785 6.86897 15.5159 6.78197 15.9239 6.61294C16.332 6.44391 16.7027 6.19615 17.015 5.88383C17.3274 5.5715 17.5751 5.20072 17.7441 4.79265C17.9131 4.38458 18 3.94722 18 3.50554C18 3.06386 17.9131 2.6265 17.7441 2.21843C17.5751 1.81036 17.3274 1.43958 17.015 1.12725C16.7027 0.814921 16.332 0.567168 15.9239 0.398136C15.5159 0.229105 15.0785 0.142105 14.6368 0.142105C14.1952 0.142105 13.7578 0.229105 13.3498 0.398136C12.9417 0.567168 12.5709 0.814921 12.2586 1.12725C11.9463 1.43958 11.6986 1.81036 11.5296 2.21843C11.3606 2.6265 11.2736 3.06386 11.2737 3.50554Z" fill="#FFC83A"/>
<path d="M1.1103e-08 3.50554C-3.58768e-05 3.94722 0.0869284 4.38458 0.255927 4.79265C0.424925 5.20072 0.672648 5.5715 0.98495 5.88383C1.29725 6.19615 1.66802 6.44391 2.07607 6.61294C2.48413 6.78197 2.92148 6.86897 3.36316 6.86897C3.80484 6.86897 4.24219 6.78197 4.65025 6.61294C5.0583 6.44391 5.42907 6.19615 5.74137 5.88383C6.05367 5.5715 6.30139 5.20072 6.47039 4.79265C6.63939 4.38458 6.72635 3.94722 6.72632 3.50554C6.72635 3.06386 6.63939 2.6265 6.47039 2.21843C6.30139 1.81036 6.05367 1.43958 5.74137 1.12725C5.42907 0.814921 5.0583 0.567168 4.65025 0.398136C4.24219 0.229105 3.80484 0.142105 3.36316 0.142105C2.92148 0.142105 2.48413 0.229105 2.07607 0.398136C1.66802 0.567168 1.29725 0.814921 0.98495 1.12725C0.672648 1.43958 0.424925 1.81036 0.255927 2.21843C0.0869284 2.6265 -3.58768e-05 3.06386 1.1103e-08 3.50554Z" fill="#D6F7FF"/>
<path d="M5.6842 3.36343C5.68417 3.80511 5.77113 4.24247 5.94013 4.65054C6.10913 5.05861 6.35685 5.42939 6.66915 5.74172C6.98146 6.05405 7.35222 6.3018 7.76027 6.47083C8.16833 6.63986 8.60568 6.72686 9.04736 6.72686C9.48904 6.72686 9.9264 6.63986 10.3345 6.47083C10.7425 6.3018 11.1133 6.05405 11.4256 5.74172C11.7379 5.42939 11.9856 5.05861 12.1546 4.65054C12.3236 4.24247 12.4106 3.80511 12.4105 3.36343C12.4106 2.92175 12.3236 2.48439 12.1546 2.07632C11.9856 1.66825 11.7379 1.29747 11.4256 0.985143C11.1133 0.672816 10.7425 0.425063 10.3345 0.256031C9.9264 0.0869996 9.48904 0 9.04736 0C8.60568 0 8.16833 0.0869996 7.76027 0.256031C7.35222 0.425063 6.98146 0.672816 6.66915 0.985143C6.35685 1.29747 6.10913 1.66825 5.94013 2.07632C5.77113 2.48439 5.68417 2.92175 5.6842 3.36343Z" fill="#33A6B8"/>
</svg>
