<svg width="132" height="126" viewBox="0 0 132 126" fill="none" xmlns="http://www.w3.org/2000/svg">
<path d="M132 56.6484L131.842 53.4984L131.474 50.4516L130.843 47.5082L130.002 44.6164L128.95 41.8279L127.635 39.1426L126.163 36.6123L124.48 34.1852L122.639 31.8615L120.588 29.7443L118.432 27.782L116.065 25.923L113.594 24.3221L111.017 22.8762L108.282 21.5852L105.442 20.5525L102.497 19.7262L99.4996 19.1066L96.3442 18.7451L92.137 18.6418L90.349 15.9049L88.298 13.3746L86.0892 10.9992L83.6175 8.83033L80.988 6.86803L78.2534 5.16393L75.3084 3.61475L72.2056 2.37541L68.9976 1.34262L65.737 0.619672L62.3187 0.154918L58.7426 0L55.5347 0.154918L52.3793 0.516393L49.3817 1.08443L46.4892 1.96229L43.5968 2.99508L40.8621 4.23443L38.2853 5.68033L35.8135 7.33279L33.447 9.1918L31.2908 11.1541L29.2398 13.2713L27.3992 15.5951L25.7163 18.0221L24.2438 20.5525L22.9817 23.2377L21.8773 26.0262L21.0358 28.918L20.4048 31.8615L20.0366 34.9082L19.9315 38.8844L17.039 40.6402L14.357 42.6025L11.8853 44.823L9.6239 47.1984L7.52031 49.7803L5.67967 52.5172L4.10198 55.4607L2.73465 58.5074L1.68286 61.709L0.894015 64.9623L0.420708 68.4221L0.262939 71.9336L0.420708 75.1352L0.788836 78.182L1.36732 81.1254L2.26135 83.9656L3.31314 86.8057L4.62788 89.4393L6.10039 91.9697L7.78326 94.4484L9.6239 96.7205L11.6223 98.8377L13.8311 100.852L16.145 102.659L18.6693 104.311L21.2462 105.757L23.9809 106.997L26.8207 108.081L29.7657 108.907L32.7633 109.475L35.8661 109.889L39.1267 109.992L42.7554 109.837L46.5944 113.813L51.0119 117.17L55.8502 119.907L61.1617 121.972L63.8964 122.695L66.7363 123.211L69.6813 123.573L72.6789 123.676L75.6765 123.573L78.5689 123.263L81.3562 122.747L84.0908 122.024L86.7729 121.094L91.8215 118.77L94.1355 117.376L98.553 114.071L102.392 110.198L104.075 108.081L107.02 103.485L109.281 98.4762L110.754 93.1574L111.227 90.3172L114.277 88.6131L117.065 86.6508L119.694 84.4303L122.113 82.0033L124.269 79.3697L126.268 76.5811L127.951 73.5861L129.318 70.4877L130.475 67.1828L131.106 64.6525L131.895 59.3852L132 56.6484Z" fill="#D6F0FF"/>
<path d="M24.4016 27.214H86.3522V103.898H24.4016V27.214Z" fill="#006183"/>
<path d="M24.9275 27.214H101.393V100.232H24.9275V27.214Z" fill="white" fill-opacity="0.33"/>
<path d="M101.393 101.007H24.9275L24.349 100.8L24.1386 100.232V27.214L24.1912 26.9041L24.6119 26.491L101.393 26.4394L101.919 26.6459L102.182 27.214V100.232L101.919 100.8L101.393 101.007ZM25.7163 99.4574H100.604V27.9885H25.7163V99.4574Z" fill="#6E6E96" fill-opacity="0.33"/>
<path d="M76.0446 52.259H84.2486V64.859H76.0446V52.259Z" fill="#BDDFFF" fill-opacity="0.33"/>
<path d="M84.2486 65.6336H76.0446L75.7291 65.5303L75.3084 65.1172L75.2558 52.259L75.3084 52.0008L75.7291 51.5877L84.2486 51.4844L84.5641 51.5877L84.9849 52.0008L85.0374 64.859L84.8271 65.3754L84.2486 65.6336ZM76.8335 64.0844H83.4597V53.0336H76.8335V64.0844Z" fill="#6E6E96" fill-opacity="0.33"/>
<path d="M76.0446 67.8541H84.2486V80.3509H76.0446V67.8541Z" fill="#BDDFFF" fill-opacity="0.33"/>
<path d="M84.2486 81.1254H76.0446L75.7291 81.0738L75.3084 80.6607L75.2558 67.8541L75.4661 67.3377L76.0446 67.0795H84.2486L84.5641 67.1828L84.9849 67.5959L85.0374 80.3508L84.8271 80.9189L84.2486 81.1254ZM76.8335 79.5763H83.4597V68.6287H76.8335V79.5763Z" fill="#6E6E96" fill-opacity="0.33"/>
<path d="M64.4223 36.509H72.6789V49.2123H64.4223V36.509Z" fill="#BDDFFF" fill-opacity="0.33"/>
<path d="M72.6789 49.9869H64.4223L64.1068 49.9353L63.686 49.5221L63.6335 36.509L63.686 36.1992L64.1068 35.7861L72.6789 35.7344L72.9418 35.7861L73.3625 36.1992L73.4677 49.2123L73.2048 49.7803L72.6789 49.9869ZM65.2111 48.4377H71.89V37.2836H65.2111V48.4377Z" fill="#6E6E96" fill-opacity="0.33"/>
<path d="M64.4223 52.259H72.6789V64.859H64.4223V52.259Z" fill="#BDDFFF" fill-opacity="0.33"/>
<path d="M72.6789 65.6336H64.4223L64.1068 65.5303L63.686 65.1172L63.6335 52.259L63.686 52.0008L64.1068 51.5877L72.6789 51.4844L72.9418 51.5877L73.3625 52.0008L73.4677 64.859L73.2048 65.3754L72.6789 65.6336ZM65.2111 64.0844H71.89V53.0336H65.2111V64.0844Z" fill="#6E6E96" fill-opacity="0.33"/>
<path d="M87.6143 52.259H97.3434V64.859H87.6143V52.259Z" fill="#BDDFFF" fill-opacity="0.33"/>
<path d="M97.3434 65.6336H87.6143L87.0884 65.3754L86.8255 64.859V52.259L86.8781 52.0008L87.2988 51.5877L97.3434 51.4844L97.8693 51.7426L98.1323 52.259V64.859L97.8693 65.3754L97.3434 65.6336ZM88.4032 64.0844H96.5546V53.0336H88.4032V64.0844Z" fill="#6E6E96" fill-opacity="0.33"/>
<path d="M76.0446 36.509H84.2486V49.2123H76.0446V36.509Z" fill="#BDDFFF" fill-opacity="0.33"/>
<path d="M84.2486 49.9869H76.0446L75.7291 49.9353L75.3084 49.5221L75.2558 36.509L75.4661 35.941L76.0446 35.7344H84.2486L84.5641 35.7861L84.9849 36.1992L85.0374 49.2123L84.8271 49.7803L84.2486 49.9869ZM76.8335 48.4377H83.4597V37.2836H76.8335V48.4377Z" fill="#6E6E96" fill-opacity="0.33"/>
<path d="M64.4223 67.8541H72.6789V80.3509H64.4223V67.8541Z" fill="#BDDFFF" fill-opacity="0.33"/>
<path d="M72.6789 81.1254H64.4223L64.1068 81.0738L63.686 80.6607L63.6335 67.8541L63.8438 67.3377L64.4223 67.0795H72.6789L72.9418 67.1828L73.3625 67.5959L73.4677 80.3508L73.2048 80.9189L72.6789 81.1254ZM65.2111 79.5763H71.89V68.6287H65.2111V79.5763Z" fill="#6E6E96" fill-opacity="0.33"/>
<path d="M87.6143 36.509H97.3434V49.2123H87.6143V36.509Z" fill="#BDDFFF" fill-opacity="0.33"/>
<path d="M97.3434 49.9869H87.6143L87.0884 49.7803L86.8255 49.2123V36.509L86.8781 36.1992L87.2988 35.7861L97.3434 35.7344L97.8693 35.941L98.1323 36.509V49.2123L97.8693 49.7803L97.3434 49.9869ZM88.4032 48.4377H96.5546V37.2836H88.4032V48.4377Z" fill="#6E6E96" fill-opacity="0.33"/>
<path d="M87.6143 67.8541H97.3434V80.3509H87.6143V67.8541Z" fill="#BDDFFF" fill-opacity="0.33"/>
<path d="M97.3434 81.1254H87.6143L87.0884 80.9189L86.8255 80.3508V67.8541L87.0884 67.3377L87.6143 67.0795H97.3434L97.8693 67.3377L98.1323 67.8541V80.3508L97.8693 80.9189L97.3434 81.1254ZM88.4032 79.5763H96.5546V68.6287H88.4032V79.5763Z" fill="#6E6E96" fill-opacity="0.33"/>
<path d="M28.9243 52.259H37.8646V64.859H28.9243V52.259Z" fill="#BDDFFF" fill-opacity="0.33"/>
<path d="M37.8646 65.6336H28.9243L28.6088 65.5303L28.1881 65.1172L28.1355 52.259L28.1881 52.0008L28.6088 51.5877L37.8646 51.4844L38.1801 51.5877L38.5482 52.0008L38.6534 64.859L38.3904 65.3754L37.8646 65.6336ZM29.7132 64.0844H37.0757V53.0336H29.7132V64.0844Z" fill="#6E6E96" fill-opacity="0.33"/>
<path d="M28.9243 36.509H37.8646V49.2123H28.9243V36.509Z" fill="#BDDFFF" fill-opacity="0.33"/>
<path d="M37.8646 49.9869H28.9243L28.6088 49.9353L28.1881 49.5221L28.1355 36.509L28.1881 36.1992L28.6088 35.7861L37.8646 35.7344L38.1801 35.7861L38.5482 36.1992L38.6534 49.2123L38.3904 49.7803L37.8646 49.9869ZM29.7132 48.4377H37.0757V37.2836H29.7132V48.4377Z" fill="#6E6E96" fill-opacity="0.33"/>
<path d="M28.9243 67.8541H37.8646V80.3509H28.9243V67.8541Z" fill="#BDDFFF" fill-opacity="0.33"/>
<path d="M37.8646 81.1254H28.9243L28.6088 81.0738L28.1881 80.6607L28.1355 67.8541L28.3984 67.3377L28.9243 67.0795H37.8646L38.1801 67.1828L38.5482 67.5959L38.6534 80.3508L38.3904 80.9189L37.8646 81.1254ZM29.7132 79.5763H37.0757V68.6287H29.7132V79.5763Z" fill="#6E6E96" fill-opacity="0.33"/>
<path d="M41.2303 67.8541H49.4343V80.3509H41.2303V67.8541Z" fill="#BDDFFF" fill-opacity="0.33"/>
<path d="M49.4343 81.1254H41.2303L40.9147 81.0738L40.494 80.6607L40.4414 67.8541L40.6518 67.3377L41.2303 67.0795H49.4343L49.7498 67.1828L50.1705 67.5959L50.2231 80.3508L50.0128 80.9189L49.4343 81.1254ZM42.0191 79.5763H48.6454V68.6287H42.0191V79.5763Z" fill="#6E6E96" fill-opacity="0.33"/>
<path d="M41.2303 52.259H49.4343V64.859H41.2303V52.259Z" fill="#BDDFFF" fill-opacity="0.33"/>
<path d="M49.4343 65.6336H41.2303L40.9147 65.5303L40.494 65.1172L40.4414 52.259L40.494 52.0008L40.9147 51.5877L49.4343 51.4844L49.7498 51.5877L50.1705 52.0008L50.2231 64.859L50.0128 65.3754L49.4343 65.6336ZM42.0191 64.0844H48.6454V53.0336H42.0191V64.0844Z" fill="#6E6E96" fill-opacity="0.33"/>
<path d="M52.8 67.8541H61.0566V80.3509H52.8V67.8541Z" fill="#BDDFFF" fill-opacity="0.33"/>
<path d="M61.0566 81.1254H52.8L52.4845 81.0738L52.1163 80.6607L52.0112 67.8541L52.2741 67.3377L52.8 67.0795H61.0566L61.3721 67.1828L61.7928 67.5959L61.8454 80.3508L61.6351 80.9189L61.0566 81.1254ZM53.5889 79.5763H60.2677V68.6287H53.5889V79.5763Z" fill="#6E6E96" fill-opacity="0.33"/>
<path d="M52.8 36.509H61.0566V49.2123H52.8V36.509Z" fill="#BDDFFF" fill-opacity="0.33"/>
<path d="M61.0566 49.9869H52.8L52.4845 49.9353L52.1163 49.5221L52.0112 36.509L52.1163 36.1992L52.4845 35.7861L61.0566 35.7344L61.3721 35.7861L61.7928 36.1992L61.8454 49.2123L61.6351 49.7803L61.0566 49.9869ZM53.5889 48.4377H60.2677V37.2836H53.5889V48.4377Z" fill="#6E6E96" fill-opacity="0.33"/>
<path d="M52.8 52.259H61.0566V64.859H52.8V52.259Z" fill="#BDDFFF" fill-opacity="0.33"/>
<path d="M61.0566 65.6336H52.8L52.4845 65.5303L52.1163 65.1172L52.0112 52.259L52.1163 52.0008L52.4845 51.5877L61.0566 51.4844L61.3721 51.5877L61.7928 52.0008L61.8454 64.859L61.6351 65.3754L61.0566 65.6336ZM53.5889 64.0844H60.2677V53.0336H53.5889V64.0844Z" fill="#6E6E96" fill-opacity="0.33"/>
<path d="M41.2303 36.509H49.4343V49.2123H41.2303V36.509Z" fill="#BDDFFF" fill-opacity="0.33"/>
<path d="M49.4343 49.9869H41.2303L40.9147 49.9353L40.494 49.5221L40.4414 36.509L40.494 36.1992L40.9147 35.7861L49.4343 35.7344L49.7498 35.7861L50.1705 36.1992L50.2231 49.2123L50.0128 49.7803L49.4343 49.9869ZM42.0191 48.4377H48.6454V37.2836H42.0191V48.4377Z" fill="#6E6E96" fill-opacity="0.33"/>
<path d="M22.8765 27.214H103.444V30.8287H22.8765V27.214Z" fill="#D5B697" fill-opacity="0.33"/>
<path d="M103.444 31.6033H22.8765L22.298 31.3967L22.0876 30.8287V27.214L22.1402 26.9041L22.561 26.491L103.444 26.4394L104.022 26.6459L104.233 27.214V30.8287L104.022 31.3967L103.444 31.6033ZM23.6653 30.0541H102.655V27.9885H23.6653V30.0541Z" fill="#6E6E96" fill-opacity="0.33"/>
<path d="M76.0446 83.6041H84.2486V96.1009H76.0446V83.6041Z" fill="#BDDFFF" fill-opacity="0.33"/>
<path d="M84.2486 96.8754H76.0446L75.7291 96.7722L75.3084 96.359L75.2558 83.6041L75.3084 83.2943L75.7291 82.8812L84.2486 82.8295L84.5641 82.8812L84.9849 83.2943L85.0374 96.1008L84.8271 96.6172L84.2486 96.8754ZM76.8335 95.3263H83.4597V84.3787H76.8335V95.3263Z" fill="#6E6E96" fill-opacity="0.33"/>
<path d="M87.6143 83.6041H97.3434V96.1009H87.6143V83.6041Z" fill="#BDDFFF" fill-opacity="0.33"/>
<path d="M97.3434 96.8754H87.6143L87.0884 96.6172L86.8255 96.1008V83.6041L86.8781 83.2943L87.2988 82.8812L97.3434 82.8295L97.8693 83.0361L98.1323 83.6041V96.1008L97.8693 96.6172L97.3434 96.8754ZM88.4032 95.3263H96.5546V84.3787H88.4032V95.3263Z" fill="#6E6E96" fill-opacity="0.33"/>
<path d="M28.9243 83.6041H37.8646V96.1009H28.9243V83.6041Z" fill="#BDDFFF" fill-opacity="0.33"/>
<path d="M37.8646 96.8754H28.9243L28.6088 96.7722L28.1881 96.359L28.1355 83.6041L28.1881 83.2943L28.6088 82.8812L37.8646 82.8295L38.1801 82.8812L38.5482 83.2943L38.6534 96.1008L38.3904 96.6172L37.8646 96.8754ZM29.7132 95.3263H37.0757V84.3787H29.7132V95.3263Z" fill="#6E6E96" fill-opacity="0.33"/>
<path d="M41.2303 83.6041H49.4343V96.1009H41.2303V83.6041Z" fill="#BDDFFF" fill-opacity="0.33"/>
<path d="M49.4343 96.8754H41.2303L40.9147 96.7722L40.494 96.359L40.4414 83.6041L40.494 83.2943L40.9147 82.8812L49.4343 82.8295L49.7498 82.8812L50.1705 83.2943L50.2231 96.1008L50.0128 96.6172L49.4343 96.8754ZM42.0191 95.3263H48.6454V84.3787H42.0191V95.3263Z" fill="#6E6E96" fill-opacity="0.33"/>
<path d="M52.8 83.6041H72.6789V100.232H52.8V83.6041Z" fill="#E4BC96" fill-opacity="0.33"/>
<path d="M72.6789 101.007H52.8L52.2741 100.8L52.0112 100.232V83.6041L52.1163 83.2943L52.4845 82.8812L72.6789 82.8295L73.2574 83.0361L73.4677 83.6041V100.232L73.2574 100.8L72.6789 101.007ZM53.5889 99.4574H71.8901V84.3787H53.5889V99.4574Z" fill="#6E6E96" fill-opacity="0.33"/>
<path d="M62.6343 101.007L62.1084 100.8L61.8454 100.232V83.6041L61.898 83.2943L62.3187 82.8812H62.9498L63.3705 83.2943L63.4231 83.6041V100.232L63.2128 100.8L62.6343 101.007Z" fill="#6E6E96" fill-opacity="0.33"/>
<path d="M45.1219 98.941H65.106V108.236H45.1219V98.941Z" fill="#D6F0FF"/>
<path d="M53.4311 11.1541L41.8088 11.0508L41.1251 10.3795V9.34673L41.8088 8.67542L42.3347 8.57214L53.957 8.67542L54.6406 9.34673V10.3795L53.957 11.0508L53.4311 11.1541Z" fill="#006183"/>
<path d="M60.7411 16.7828H47.6988L47.1729 16.6795L46.4893 16.0082V14.9754L47.1729 14.3041L60.7411 14.2008L61.6351 14.614L62.0558 15.4918L61.6351 16.4213L60.7411 16.7828Z" fill="#006183"/>
<path d="M82.3028 11.1541H117.59V16.0598H82.3028V11.1541Z" fill="#EBEBF7"/>
<path d="M117.59 16.8344H82.3028L81.7243 16.6278L81.5139 16.0598V11.1541L81.7243 10.586L82.3028 10.3795H117.59L118.169 10.586L118.379 11.1541V16.0598L118.169 16.6278L117.59 16.8344ZM83.0916 15.2852H116.802V11.9287H83.0916V15.2852Z" fill="#CCCCDE"/>
<path d="M72.1004 16.0082H127.635V103.434H72.1004V16.0082Z" fill="#006183"/>
<path d="M127.635 104.208H72.1004L71.7849 104.157L71.3641 103.743L71.3116 16.0082L71.3641 15.6983L71.7849 15.2852L127.635 15.2336L127.951 15.2852L128.371 15.6983L128.424 103.434L128.161 104.002L127.635 104.208ZM72.8892 102.659H126.846V16.7828H72.8892V102.659Z" fill="#CCCCDE"/>
<path d="M76.886 20.3459H123.165V103.434H76.886V20.3459Z" fill="#CFE7FF"/>
<path d="M123.165 104.208H76.886L76.5705 104.157L76.1498 103.743L76.0972 20.3459L76.1498 20.0877L76.5705 19.6746L123.165 19.5713L123.48 19.6746L123.901 20.0877L123.954 103.434L123.743 104.002L123.165 104.208ZM77.6749 102.659H122.376V21.1205H77.6749V102.659Z" fill="#CCCCDE"/>
<path d="M77.4645 63.568L120.904 20.9139L89.4024 20.9655L77.4645 33.0492V63.568Z" fill="white" fill-opacity="0.49"/>
<path d="M122.797 32.3779L77.149 77.2008L89.6653 77.5623L122.797 45.0295V32.3779Z" fill="white" fill-opacity="0.27"/>
<path d="M76.886 77.2008H123.165V103.434H76.886V77.2008Z" fill="#CFE7FF"/>
<path d="M123.165 104.208L76.5705 104.157L76.1498 103.743L76.0972 103.434V77.2008L76.1498 76.9426L76.5705 76.5295H123.48L123.901 76.9426L123.954 77.2008V103.434L123.743 104.002L123.165 104.208ZM77.6749 102.659H122.376V77.9754H77.6749V102.659Z" fill="#CCCCDE"/>
<path d="M89.0342 83.6557L77.5697 94.6033V101.265L89.0342 90.3172V83.6557Z" fill="white" fill-opacity="0.1813"/>
<path d="M77.4645 89.5426L83.6701 83.6557H77.4645" fill="white" fill-opacity="0.1813"/>
<path d="M105.6 83.6557L94.451 94.6033V101.265L105.6 90.3172V83.6557Z" fill="white" fill-opacity="0.1813"/>
<path d="M94.8191 89.5426L100.814 83.6557H94.8191" fill="white" fill-opacity="0.1813"/>
<path d="M122.534 83.6557L110.175 94.6033V101.265L122.534 90.3172V83.6557Z" fill="white" fill-opacity="0.1813"/>
<path d="M110.596 89.5426L117.222 83.6557H110.596" fill="white" fill-opacity="0.1813"/>
<path d="M81.9872 20.3459H83.5649V77.2008H81.9872V20.3459Z" fill="#CCCCDE"/>
<path d="M87.8773 20.3459H89.455V77.2008H87.8773V20.3459Z" fill="#CCCCDE"/>
<path d="M93.6621 20.3459H95.2398V77.2008H93.6621V20.3459Z" fill="#CCCCDE"/>
<path d="M99.71 20.3459H101.288V77.2008H99.71V20.3459Z" fill="#CCCCDE"/>
<path d="M105.442 20.3459H107.02V77.2008H105.442V20.3459Z" fill="#CCCCDE"/>
<path d="M111.069 20.3459H112.647V77.2008H111.069V20.3459Z" fill="#CCCCDE"/>
<path d="M116.696 20.3459H118.274V77.2008H116.696V20.3459Z" fill="#CCCCDE"/>
<path d="M123.165 33.1524H76.886L76.5705 33.0492L76.1498 32.6361V32.068L76.5705 31.6549L123.165 31.6033L123.743 31.8098L123.954 32.3779L123.743 32.8943L123.165 33.1524Z" fill="#CCCCDE"/>
<path d="M123.165 44.7197H76.886L76.5705 44.668L76.1498 44.2549V43.6352L76.5705 43.2221L123.165 43.1705L123.743 43.4287L123.954 43.9451L123.743 44.5131L123.165 44.7197Z" fill="#CCCCDE"/>
<path d="M123.165 55.7705H76.886L76.5705 55.6672L76.1498 55.3057V54.6861L76.5705 54.273L123.165 54.2213L123.743 54.4279L123.954 54.9959L123.743 55.5123L123.165 55.7705Z" fill="#CCCCDE"/>
<path d="M76.886 65.2205H123.165V66.7697H76.886V65.2205Z" fill="#CCCCDE"/>
<path d="M89.7179 81.4352H94.451V103.434H89.7179V81.4352Z" fill="#F0F0FF"/>
<path d="M94.451 104.208H89.7179L89.1394 104.002L88.9291 103.434V81.4352L89.1394 80.9188L89.7179 80.6606H94.451L94.9769 80.9188L95.2398 81.4352V103.434L94.9769 104.002L94.451 104.208ZM90.5068 102.659H93.6621V82.2098H90.5068V102.659Z" fill="#CCCCDE"/>
<path d="M105.442 80.4541H109.86V103.434H105.442V80.4541Z" fill="#F0F0FF"/>
<path d="M109.86 104.208H105.442L104.864 104.002L104.653 103.434V80.4541L104.706 80.1443L105.127 79.7311L109.86 79.6795L110.438 79.8861L110.649 80.4541V103.434L110.438 104.002L109.86 104.208ZM106.231 102.659H109.071V81.2287H106.231V102.659Z" fill="#CCCCDE"/>
<path d="M76.886 77.2008H123.165V83.6557H76.886V77.2008Z" fill="#F0F0FF"/>
<path d="M123.165 84.4303H76.886L76.3076 84.2238L76.0972 83.6557V77.2008L76.1498 76.9426L76.5705 76.5295L123.165 76.4262L123.743 76.6844L123.954 77.2008V83.6557L123.743 84.2238L123.165 84.4303ZM77.6749 82.8811H122.376V77.9754H77.6749V82.8811Z" fill="#CCCCDE"/>
<path d="M92.1896 7.28113H107.704V11.1541H92.1896V7.28113Z" fill="#EBEBF7"/>
<path d="M107.704 11.9287L91.8741 11.877L91.4534 11.4639L91.4008 11.1541V7.28112L91.6637 6.71309L92.1896 6.50653L108.019 6.55817L108.44 6.97128L108.492 7.28112V11.1541L108.282 11.6705L107.704 11.9287ZM92.9785 10.3795H106.915V8.05571H92.9785V10.3795Z" fill="#CCCCDE"/>
<path d="M99.9729 8.05572L99.3944 7.79753L99.1841 7.28113V0.929494L99.2366 0.619658L99.6574 0.206543H100.288L100.657 0.619658L100.762 0.929494V7.28113L100.499 7.79753L99.9729 8.05572Z" fill="#CCCCDE"/>
<path d="M70.1546 101.265H130.475V105.757H70.1546V101.265Z" fill="#F0F0FF"/>
<path d="M130.475 106.532H70.1546L69.5761 106.274L69.3657 105.757V101.265L69.4183 100.955L69.839 100.542L130.475 100.49L131.053 100.697L131.264 101.265V105.757L131.053 106.274L130.475 106.532ZM70.9434 104.983H129.686V102.039H70.9434V104.983Z" fill="#CCCCDE"/>
<path d="M51.7482 105.757H4.89084V66.4082L28.3458 51.691L51.7482 66.4082V105.757Z" fill="#006183"/>
<path d="M52.537 106.532H4.10199V65.9951L28.3458 50.7615L52.537 65.9951V106.532ZM5.67968 104.983H50.9594V66.8213L28.3458 52.6205L5.67968 66.8213V104.983Z" fill="#CCCCDE"/>
<path d="M28.3458 49.1607L0.788849 65.6336V68.3189H4.89084L28.3458 54.1181L51.6956 68.5254L55.3243 68.5771V65.6336L28.3458 49.1607Z" fill="#E0E6FC"/>
<path d="M55.3243 69.3517L51.2749 69.1967L28.3458 55.0476L5.31155 68.9902L4.89084 69.0935H0.788845L0.210359 68.8869L0 68.3189V65.6336L0.368127 64.9623L27.9251 48.541L28.3458 48.3861L28.7665 48.541L55.745 64.9623L56.1131 65.6336V68.5771L55.8502 69.1451L55.3243 69.3517ZM51.9586 67.7508L54.5355 67.8025V66.0467L28.3458 50.0902L1.57769 66.0467V67.5443H4.68048L27.9251 53.4467L28.3458 53.3435L28.7665 53.4467L51.9586 67.7508Z" fill="#CCCCDE"/>
<path d="M9.30838 86.0312H25.243V96.359H9.30838V86.0312Z" fill="#D4EAFF"/>
<path d="M25.243 97.1336H9.30838L8.78248 96.8754L8.51953 96.359V86.0312L8.78248 85.5148L9.30838 85.2566H25.243L25.8215 85.5148L26.0319 86.0312V96.359L25.8215 96.8754L25.243 97.1336ZM10.0972 95.5844H24.4542V86.8057H10.0972V95.5844Z" fill="#CCCCDE"/>
<path d="M4.89084 99.4574H51.7482V105.757H4.89084V99.4574Z" fill="#FCEBE3"/>
<path d="M51.7482 106.532H4.89083L4.36494 106.274L4.10199 105.757V99.4574L4.20717 99.1476L4.5753 98.7344L51.7482 98.6828L52.3267 98.941L52.537 99.4574V105.757L52.3267 106.274L51.7482 106.532ZM5.67968 104.983H50.9594V100.232H5.67968V104.983Z" fill="#CCCCDE"/>
<path d="M25.9267 105.757L25.7689 104.725L25.506 103.898L24.9801 103.227L24.349 102.659L23.6653 102.298L22.8239 102.194L21.404 102.607L20.7729 103.072L20.4574 101.936L19.9315 101.007L19.2478 100.18L18.4064 99.5607L17.4598 99.1992L16.408 99.0443L15.4614 99.1476L14.5673 99.509L13.7785 100.025L12.9896 99.0443L11.9904 98.2697L10.8861 97.8049L9.6765 97.5984L8.51953 97.7533L7.52032 98.1664L6.57371 98.7861L5.78486 99.664L5.20638 100.645L4.78566 101.833L4.04941 101.73L3.20797 101.884L2.41913 102.246L1.73546 102.814L1.26216 103.589L0.894028 104.466L0.788849 105.757H25.9267Z" fill="#CCE8D6"/>
<path d="M25.9267 106.532L0.525896 106.429L0.105179 106.067L0 105.757L0.157769 104.208L0.578486 103.124L1.26215 102.194L2.10359 101.523L3.10279 101.058L4.20717 100.955L4.78566 99.7672L5.52191 98.7861L6.36335 97.9599L7.41514 97.3402L8.46693 96.9787L9.67649 96.8238L10.8861 96.9787L12.043 97.3918L13.0422 98.0631L13.9888 98.941L15.5665 98.3213L17.4598 98.373L18.4064 98.7344L20.0892 99.9222L21.2462 101.781L22.8239 101.42L23.8757 101.575L24.7697 101.988L25.5586 102.659L26.1896 103.537L26.5578 104.57L26.6104 106.067L26.1896 106.48L25.9267 106.532ZM1.63028 104.983H25.0327L24.7171 104.157L24.2438 103.537L23.5602 103.124L22.8239 102.969L22.0351 103.124L20.9833 103.847H20.5625L20.1944 103.589L19.3004 101.471L17.9857 100.232L17.2494 99.9222H15.6717L13.9888 100.748L13.6733 100.8L13.3578 100.645L12.4112 99.5607L11.6223 98.941L10.6757 98.5279L9.67649 98.373L8.72988 98.5279L7.88845 98.8377L7.0996 99.4058L5.94263 100.955L5.41673 102.298L4.89084 102.607L4.0494 102.504L2.94502 102.814L2.47171 103.227L1.89323 103.95L1.63028 104.983Z" fill="#CCCCDE"/>
<path d="M32.3426 86.0312H44.5434V105.757H32.3426V86.0312Z" fill="#FFDEDE"/>
<path d="M44.5434 106.532H32.3426L32.0271 106.429L31.6064 106.016L31.5538 86.0312L31.6064 85.7213L32.0271 85.3082L44.5434 85.2566L44.859 85.3082L45.2797 85.7213L45.3323 105.757L45.1219 106.274L44.5434 106.532ZM33.1315 104.983H43.7546V86.8057H33.1315V104.983Z" fill="#CCCCDE"/>
<path d="M51.7482 83.1394H4.89085L4.57531 83.0877L4.20718 82.6746V82.0549L4.57531 81.6418L51.7482 81.5902L52.3267 81.7967L52.5371 82.3648L52.3267 82.9328L51.7482 83.1394Z" fill="#CCCCDE"/>
<path d="M9.30838 69.0418H17.8805V78.5951H9.30838V69.0418Z" fill="#D4EAFF"/>
<path d="M17.8805 79.3697H9.30838L8.78248 79.1631L8.51953 78.5951V69.0418L8.62471 68.732L9.04543 68.3189L17.8805 68.2672L18.459 68.4738L18.6693 69.0418V78.5951L18.459 79.1631L17.8805 79.3697ZM10.0972 77.8205H17.0916V69.8164H10.0972V77.8205Z" fill="#CCCCDE"/>
<path d="M17.8805 74.6189H9.30839L9.04544 74.5156L8.62473 74.1025V73.5344L9.04544 73.1213L17.8805 73.0697L18.459 73.2762L18.6693 73.8443L18.459 74.3607L17.8805 74.6189Z" fill="#CCCCDE"/>
<path d="M38.6008 69.0418H47.1729V78.5951H38.6008V69.0418Z" fill="#D4EAFF"/>
<path d="M47.1729 79.3697H38.6008L38.0749 79.1631L37.812 78.5951V69.0418L37.8645 68.732L38.2853 68.3189L47.1729 68.2672L47.7514 68.4738L47.9617 69.0418V78.5951L47.7514 79.1631L47.1729 79.3697ZM39.3896 77.8205H46.3841V69.8164H39.3896V77.8205Z" fill="#CCCCDE"/>
<path d="M47.1729 74.6189H38.6008L38.2853 74.5156L37.8645 74.1025V73.5344L38.2853 73.1213L47.1729 73.0697L47.7514 73.2762L47.9617 73.8443L47.7514 74.3607L47.1729 74.6189Z" fill="#CCCCDE"/>
<path d="M24.0335 69.0418H32.553V78.5951H24.0335V69.0418Z" fill="#D4EAFF"/>
<path d="M32.553 79.3697H24.0335L23.455 79.1631L23.2446 78.5951V69.0418L23.2972 68.732L23.7179 68.3189L32.553 68.2672L33.1315 68.4738L33.3418 69.0418V78.5951L33.1315 79.1631L32.553 79.3697ZM24.8223 77.8205H31.7642V69.8164H24.8223V77.8205Z" fill="#CCCCDE"/>
<path d="M32.553 74.6189H24.0335L23.7179 74.5156L23.2972 74.1025V73.5344L23.7179 73.1213L32.553 73.0697L33.1315 73.2762L33.3418 73.8443L33.1315 74.3607L32.553 74.6189Z" fill="#CCCCDE"/>
<path d="M17.302 97.1336L16.7235 96.8754L16.5132 96.359V86.0312L16.7235 85.5148L17.302 85.2566L17.8805 85.5148L18.0908 86.0312V96.359L17.8805 96.8754L17.302 97.1336Z" fill="#CCCCDE"/>
<path d="M30.6598 103.485H46.2263V105.757H30.6598V103.485Z" fill="#F0F0FF"/>
<path d="M46.2263 106.532L30.3442 106.429L29.9235 106.016L29.8709 105.757V103.485L29.9235 103.175L30.3442 102.762H46.4892L46.91 103.175L47.0151 103.485V105.757L46.7522 106.274L46.2263 106.532ZM31.4486 104.983H45.4374V104.26H31.4486V104.983Z" fill="#CCCCDE"/>
<path d="M58.8478 105.757L58.69 104.776L58.2167 104.053L57.796 103.692L56.7968 103.382L56.008 103.537L55.3769 103.95L54.851 102.556L53.7992 101.626L52.4845 101.265L51.5379 101.42L50.749 101.884L49.5394 100.748L48.8032 100.439L47.9618 100.284L47.2255 100.387L45.9108 101.11L45.0167 102.349L44.7012 103.124H43.6494L42.7028 103.795L42.1243 104.88L42.0717 105.757H58.8478Z" fill="#CCE8D6"/>
<path d="M58.8478 106.532L41.7562 106.429L41.3355 106.067L41.2303 105.551L41.3355 104.673L42.0717 103.279L42.7028 102.762L43.3865 102.401L44.1753 102.298L45.0693 100.852L46.3841 99.8705L47.1729 99.6123H48.8032L50.2757 100.284L50.9068 100.852L52.4845 100.49L53.5363 100.645L54.4829 101.11L55.2191 101.833L55.8502 102.762L56.7968 102.607L58.2167 103.021L59.2159 104.105L59.5315 104.88V106.067L59.1108 106.429L58.8478 106.532ZM42.9132 104.983H57.9012L57.4279 104.363L56.7968 104.157L55.5873 104.725H55.1665L54.7984 104.466L54.3251 103.279L53.8518 102.607L53.2207 102.194L52.4845 102.039L51.8534 102.143L50.9594 102.659H50.5912L50.2757 102.556L49.1187 101.42L47.9618 101.058L47.1729 101.265L46.4367 101.678L45.8582 102.401L45.3323 103.589L44.8064 103.898L43.9649 103.847L43.5442 104.053L42.9132 104.983Z" fill="#CCCCDE"/>
<path d="M34.341 96.7721L33.8151 96.5139L33.5522 95.9975V93.4672L33.6574 93.1574L34.0781 92.7959H34.6566L35.0773 93.1574L35.1299 93.4672L35.0773 96.3074L34.6566 96.7205L34.341 96.7721Z" fill="#CCCCDE"/>
<path d="M14.7251 78.2853L5.78488 122.179H125.163L117.275 78.2853H14.7251Z" fill="#ACDFF5"/>
<path d="M63.3705 122.179L65.0534 118.564L67.3148 115.207L68.8399 113.503L70.6805 111.851L73.5203 110.043L75.2032 109.269L76.9387 108.752L78.8319 108.391L86.4048 107.926L92.5052 106.893L95.5554 106.067L98.6582 104.983L101.656 103.692L104.548 102.194L107.283 100.387L109.229 98.8894L111.017 97.2369L112.7 95.3779L114.225 93.364L115.539 91.2467L116.591 88.923L117.538 86.341L118.222 83.5525L117.275 78.2853H104.39L104.443 80.764L104.233 82.5713L103.812 84.482L103.076 86.5476L101.498 89.2328L100.341 90.5238L99.0789 91.6082L97.4486 92.641L95.4502 93.5189L85.0901 97.1336L76.518 100.645L72.2582 102.762L69.4709 104.363L64.5275 107.875L61.3721 110.973L58.953 114.33L58.059 116.137L57.3753 118.048L56.9546 120.062L56.8494 122.179H63.3705Z" fill="#FFF2B5" fill-opacity="0.31"/>
<path d="M59.2685 122.179L59.8996 119.648L60.6359 117.789L61.6877 115.879L63.2128 113.607L65.8423 110.715L67.6829 109.217L69.5761 107.926L71.8901 106.687L74.5721 105.499L77.3594 104.57L80.6725 103.795L89.0869 102.607L92.9785 101.833L96.2391 100.903L99.3944 99.7156L102.024 98.5279L106.126 95.9976L108.861 93.6222L111.227 90.6787L111.858 89.491L114.172 83.191L116.171 79.6279L117.275 78.2853H14.7251L5.78488 122.179H59.2685Z" fill="#FFF2B5"/>
<path d="M84.5116 103.279L89.0869 102.607L92.9785 101.833L96.239 100.903L99.3944 99.7156L102.024 98.5279L104.127 97.3918L107.704 94.7582L110.386 91.8664L111.227 90.6787L111.858 89.491L114.172 83.191L116.171 79.6279L117.275 78.2853H114.382L112.752 79.8861L110.438 82.7779L109.176 84.7402L108.019 86.909L106.547 90.4722L105.916 91.4533L103.812 93.4156L102.182 94.5517L97.8167 96.7722L94.1355 98.2697L89.9809 99.6123L81.4088 101.884L70.996 104.157L69.0502 104.88L67.3673 105.809L65.7896 106.945L63.1076 109.527L61.4247 111.644L60.0574 113.813L58.953 115.982L58.1641 117.893L56.7968 122.179H59.2685L59.8996 119.648L61.6877 115.879L63.2127 113.607L64.3697 112.212L67.6829 109.217L69.5761 107.926L71.89 106.687L74.5721 105.499L77.3594 104.57L80.6725 103.795L84.5116 103.279Z" fill="#FFE6B5"/>
<path d="M21.404 122.179L23.9809 118.512L25.4008 116.912L29.2399 113.4L33.2893 110.766L37.1809 109.114L43.5968 107.203L52.0638 105.138L61.2669 103.175L70.1546 101.678L74.2566 101.213L79.7785 101.11L82.408 101.626L91.0853 99.2508L84.7219 96.8238L82.408 96.3591L88.9291 92.7959L93.6096 89.5427L95.9235 87.632L98.0797 85.5148L99.9729 83.2943L101.025 81.6418L101.919 79.9894L102.55 78.2853L99.2367 79.0599L96.8175 82.0549L94.6088 84.2754L92.0319 86.5476L88.4558 89.2328L82.9339 92.6927L79.463 94.4484L75.8869 96.0492L71.89 97.5467L67.3147 98.941L63.949 99.7672L56.2183 101.162L51.8534 101.626L45.8056 103.072L39.863 104.776L33.5522 107.152L33.447 105.396L33.6048 104.208L34.341 102.504L35.0247 101.575L36.9179 99.9222L42.9657 96.9271L45.1219 95.6877L47.0151 94.2935L48.1721 93.209L50.0128 90.7304L50.6438 89.3361L51.1171 87.7353L51.3801 85.8763L54.851 83.759L56.2183 82.6746L57.6383 81.3836L58.8478 79.8861L59.7944 78.2853H56.7968L52.5896 81.3836L50.4335 82.7263L44.9642 85.4115L39.5474 87.2705L34.7618 88.0968L33.1315 88.7164L31.9219 89.5427L30.6598 90.6787L29.1347 92.5894L27.2414 95.8943L26.1371 98.2697L24.0335 100.542L22.0877 102.143L19.7737 103.795L16.5657 105.602L11.5697 107.668L8.41435 108.701L7.88846 111.902L12.7267 110.095L17.4598 107.875L22.6661 104.673L25.1379 102.762L27.3992 100.593L28.7665 98.9927L29.8709 97.2886L31.659 94.1386L33.7626 92.073L35.5506 90.8853L37.6542 89.7492L40.5466 88.6131L45.1745 87.4254L48.1721 86.9607L47.2781 89.0263L46.3315 90.4722L44.4908 92.4345L41.651 94.5L39.8104 95.4295L35.8136 97.082L34.341 97.8566L33.2367 98.6828L31.4486 100.593L30.2391 103.072L29.9235 104.466V106.739L30.2916 108.184L23.8231 114.588L22.1928 116.395L20.7729 118.306L19.353 120.939L18.9323 122.179H21.404Z" fill="#FFE6B5"/>
<path d="M8.46695 108.856L12.306 107.462L15.9873 105.809L19.8789 103.692L21.667 102.452L23.1395 101.213L24.6646 99.3541L29.345 91.35L30.6072 89.8525L31.5538 89.0263L32.7108 88.4582L34.0255 88.0968L40.494 86.8574L43.1235 86.1861L46.8048 84.8951L49.5921 83.6041L52.0638 82.2099L55.2717 79.8861L56.7968 78.2853H14.7251L8.46695 108.856Z" fill="#BDE39F"/>
<path d="M40.8622 84.3271L38.7586 84.5336L36.7602 85.05L34.8669 85.773L31.2908 87.8386L29.6606 89.1295L27.4518 91.2984L25.506 93.5189L21.5618 99.1992L20.51 100.335L19.353 101.265L17.4598 102.401L15.5665 103.279L13.7785 103.847L11.0964 104.466L9.7291 108.701L12.2534 107.771L18.196 105.086L22.2454 102.556L23.8757 101.213L25.4008 99.3541L26.7155 97.3918L30.0813 91.35L31.3434 89.8525L32.2901 89.0263L33.447 88.4582L34.7618 88.0968L38.706 87.4254L42.0191 86.7025L47.5936 84.8435L51.643 82.9328L55.6924 80.1443L57.5331 78.2853H51.3801L50.3283 80.0927L49.3291 81.2287L47.4359 82.623L44.7012 83.759L42.9657 84.1205L40.8622 84.3271Z" fill="#B2D696"/>
<path d="M19.6685 122.385L18.1434 122.024L18.6693 120.475L20.51 117.118L22.6661 114.33L25.8741 111.18L27.8725 109.579L30.3442 107.978L32.9211 106.532L35.9713 105.138L39.6 103.743L43.2813 102.607L47.541 101.626L58.2693 99.8189L64.1594 98.5795L71.89 96.5139L79.2526 93.8803L85.8263 90.7303L88.8765 88.923L91.5586 87.0123L93.9251 84.9984L95.5028 83.3459L96.8701 81.5902L97.9745 79.8344L98.8159 78.0271L100.288 78.5951L99.3944 80.5058L98.2375 82.3648L96.8175 84.1721L95.1873 85.8762L92.7681 87.9935L90.0335 90.0074L86.8781 91.918L80.094 95.1713L72.5737 97.9082L64.6327 100.077L58.5849 101.316L47.9092 103.124L43.8072 104.105L40.2837 105.189L36.8128 106.48L33.8677 107.875L31.3434 109.269L28.9769 110.818L25.4008 113.761L23.2972 116.085L21.8773 117.996L20.7729 119.855L19.6685 122.385Z" fill="#DEC99E"/>
<path d="M90.5594 103.124L86.51 100.852L84.6167 100.129L80.6725 99.1476L75.7291 98.7345L72.9418 98.7861L67.9984 99.3541L62.8972 100.439L62.3713 100.129L62.2136 99.8705L62.2662 99.3025L62.7395 98.8894L64.1594 98.5279L67.7355 97.8049L72.7841 97.2369L75.6765 97.1853L80.7777 97.5984L83.0916 98.0631L85.353 98.7345L87.4566 99.5607L89.3498 100.593L91.243 101.988L91.2956 102.556L91.1905 102.814L90.5594 103.124Z" fill="#DEC99E"/>
<path d="M30.3442 109.734L29.9235 109.579L29.608 109.217L29.2398 107.978L28.9769 105.551L29.4502 103.124L29.9761 101.936L31.0279 100.284L32.3426 98.8377L34.0255 97.4435L35.8136 96.3074L37.9171 95.3779L41.7036 94.0869L42.9657 93.4156L44.1227 92.5377L45.1219 91.5049L46.0159 90.214L46.7522 88.7164L47.4885 86.4443L47.9092 83.759L48.3299 83.3459L48.961 83.3976L49.3291 83.8107L49.1187 86.2377L48.1721 89.2844L46.6996 92.0213L44.8064 93.9836L43.6494 94.8099L42.2821 95.5328L38.5482 96.7721L36.655 97.65L34.9721 98.6312L33.4996 99.8705L32.29 101.161L31.396 102.607L30.8175 104.105L30.5546 105.654L30.6072 106.635L31.1331 108.959L30.9227 109.475L30.3442 109.734Z" fill="#DEC99E"/>
<path d="M23.3498 88.3549L26.1371 84.482L29.4502 88.3549H23.3498Z" fill="#F0F0FF"/>
<path d="M29.5028 89.1295H23.3498L22.9817 89.0262L22.6661 88.7164L22.6136 88.3033L22.7187 87.9418L25.506 84.0172L26.1371 83.7074L26.7681 83.9656L30.1865 88.0451V88.6648L29.7657 89.0779L29.5028 89.1295ZM24.8749 87.5803H27.7673L26.1897 85.7213L24.8749 87.5803Z" fill="#6E6E96"/>
<path d="M18.5641 88.3549L22.0351 83.4492L26.1896 88.3549H18.5641Z" fill="#F0F0FF"/>
<path d="M26.2422 89.1295H18.5641L18.1434 89.0263L17.8805 88.7164L17.7753 88.3033L17.9331 87.9418L21.404 83.0361L21.9825 82.6746L22.6661 82.9845L26.9259 88.0451V88.6648L26.5052 89.0779L26.2422 89.1295ZM20.0892 87.5804H24.5068L22.0877 84.7402L20.0892 87.5804Z" fill="#6E6E96"/>
<path d="M22.0351 83.4492L24.1912 87.4771L22.0351 85.773L23.0869 87.632L19.8263 87.9418L21.4566 84.2754L18.5641 88.3549H26.1896L22.0351 83.4492Z" fill="#6E6E96" fill-opacity="0.1"/>
<path d="M18.0382 88.6131L21.2462 84.1205L21.7195 84.3787L20.247 87.632L22.6661 87.4254L21.7721 85.9279L22.1928 85.5664L23.4024 86.4959L21.8247 83.6041L22.2454 83.2943L26.7155 88.6131H18.0382ZM20.1944 86.4959L19.0374 88.0967H19.5107L20.1944 86.4959ZM22.8765 86.8058L23.5076 87.8385L20.8255 88.0967H25.6111L23.455 85.5148L24.4542 87.3222L24.0335 87.6836L22.8765 86.8058Z" fill="#6E6E96" fill-opacity="0.1"/>
<path d="M95.7132 109.682L94.7665 109.579L93.9777 109.217L93.294 108.701L92.7681 108.03L92.4 107.255L92.2948 106.325L92.5052 105.809L93.0837 105.551L93.3992 105.602L93.8199 106.016L94.0303 107.048L94.3984 107.616L94.9769 108.03L95.7132 108.133L96.4494 108.03L97.0279 107.616L97.396 107.048L97.6064 106.016L98.0271 105.602H98.6582L99.0789 106.016L98.9737 107.255L98.6582 108.03L98.1323 108.701L97.4486 109.217L96.6072 109.579L95.7132 109.682Z" fill="#6E6E96"/>
<path d="M95.7132 109.269L95.1347 109.062L94.9243 108.494V102.917L94.9769 102.659L95.3976 102.246H96.0287L96.4494 102.659L96.502 102.917V108.494L96.2391 109.062L95.7132 109.269Z" fill="#6E6E96"/>
<path d="M97.2908 105.293L93.8199 105.241L93.3992 104.828L93.3466 104.518L93.3992 104.208L93.8199 103.795H97.6064L98.0271 104.208V104.828L97.6064 105.241L97.2908 105.293Z" fill="#6E6E96"/>
<path d="M49.7498 106.584L49.6972 107.461L49.0661 108.907L48.5402 109.424L47.3833 109.889L46.7522 109.734L46.1737 109.424L45.6478 108.907L45.0693 107.461L44.9641 106.584L45.2797 104.518L45.6478 103.434L46.5418 102.091L47.3833 101.73L48.1721 102.091L49.0661 103.434L49.4343 104.518L49.7498 106.584Z" fill="#B9FF5F"/>
<path d="M47.3833 110.663L46.4892 110.508L45.753 110.095L45.1219 109.475L44.596 108.649L44.2805 107.72L44.1753 106.584L44.5434 104.26L45.0167 103.02L46.1737 101.42L46.6996 101.11L47.3833 100.955L48.0143 101.11L48.5928 101.42L49.7498 103.02L50.1705 104.26L50.5386 106.584L50.4335 107.72L50.1179 108.649L49.6446 109.475L48.9609 110.095L48.2247 110.508L47.3833 110.663ZM47.3833 102.504L46.6996 103.175L46.3841 103.847L45.8056 105.654L45.753 106.584L45.8582 107.565L46.2263 108.339L46.9625 109.011H47.7514L48.4876 108.339L48.8558 107.565L48.9609 106.584L48.9084 105.654L48.3825 103.847L48.0143 103.175L47.3833 102.504Z" fill="#6E6E96"/>
<path d="M47.3833 113.658L46.8048 113.452L46.5944 112.884V109.889L46.647 109.579L47.0677 109.166H47.6988L48.0669 109.579L48.1721 109.889L48.0669 113.193L47.6988 113.607L47.3833 113.658Z" fill="#6E6E96"/>
<path d="M86.1418 87.4771L85.9841 88.3549L85.6159 89.0779L85.09 89.5943L84.459 89.7492L83.8279 89.5943L83.2494 89.0779L82.9339 88.3549L82.7761 87.4771L83.302 85.3082L84.0382 84.2754L84.459 84.1205L84.8797 84.2754L85.6159 85.3082L86.1418 87.4771Z" fill="#B9FF5F"/>
<path d="M84.459 90.5238L83.1968 90.1107L82.7235 89.6459L82.0924 88.3033L81.9872 87.4771L82.2502 85.7213L82.6183 84.8435L83.5123 83.6558L84.459 83.3459L85.4056 83.6558L86.2996 84.8435L86.6151 85.7213L86.9307 87.4771L86.8255 88.3033L86.1944 89.6459L85.6685 90.1107L84.459 90.5238ZM84.459 84.8951L83.8805 85.8762L83.6701 86.6508L83.5649 87.4771L83.8805 88.5099L84.459 88.9746L85.0374 88.5099L85.2478 88.0967V86.6508L85.0374 85.8762L84.459 84.8951Z" fill="#6E6E96"/>
<path d="M84.459 92.5894L83.8805 92.3828L83.6701 91.8148V89.7492L83.7227 89.4394L84.1434 89.0262H84.7745L85.1952 89.4394L85.2478 89.7492L85.1952 92.1246L84.7745 92.5377L84.459 92.5894Z" fill="#6E6E96"/>
<path d="M125.163 122.953L5.41675 122.902L5.1538 122.695L4.99603 122.024L13.9363 78.1303L14.4622 77.5623H117.538L118.064 78.1303L125.9 122.024L125.742 122.695L125.163 122.953ZM6.73149 121.404H124.217L116.591 79.0598H15.3562L6.73149 121.404Z" fill="#6E6E96"/>
<path d="M49.2765 113.658L45.0693 113.607L44.6486 113.193L44.596 112.884L44.6486 112.574L45.0693 112.161H49.5395L49.9602 112.574V113.193L49.5395 113.607L49.2765 113.658Z" fill="#6E6E96" fill-opacity="0.25"/>
<path d="M77.2016 56.8033L77.0964 58.4041L76.255 61.3475L75.5713 62.6902L73.7307 65.0656L71.3116 66.8729L69.9442 67.5443L66.9466 68.3705L65.2637 68.4738L62.1084 68.0607L60.6359 67.5443L58.0064 66.0467L55.8502 63.9295L55.0088 62.6902L53.7992 59.9016L53.4837 58.4041L53.3785 56.8033L53.7992 53.6533L54.3251 52.259L55.8502 49.6254L58.0064 47.5598L60.6359 46.0107L63.6335 45.2361L65.2637 45.0811L66.9466 45.2361L69.9442 46.0107L71.3116 46.682L73.7307 48.541L75.5713 50.9164L76.255 52.259L77.0964 55.1508L77.2016 56.8033Z" fill="#006183"/>
<path d="M65.2637 69.2484L63.5283 69.1451L61.898 68.8352L60.3729 68.2672L58.9004 67.5443L56.3235 65.582L54.3251 63.1033L53.5888 61.6574L53.0629 60.1082L52.6948 58.5074L52.5896 56.8033L52.6948 55.0992L53.0629 53.4467L53.5888 51.9492L54.3251 50.5033L56.3235 47.9729L58.9004 46.0106L60.3729 45.2877L61.898 44.7713L63.5283 44.4615L65.2637 44.3065L67.0518 44.4615L68.6821 44.7713L70.2072 45.2877L71.6797 46.0106L74.2566 47.9729L76.255 50.5033L76.9912 51.9492L77.5171 53.4467L77.8853 55.0992L77.9904 56.8033L77.8853 58.5074L77.5171 60.1082L76.9912 61.6574L76.255 63.1033L74.2566 65.582L71.6797 67.5443L70.2072 68.2672L68.6821 68.8352L67.0518 69.1451L65.2637 69.2484ZM65.2637 45.8557L63.7386 45.959L60.9514 46.7336L59.6892 47.3533L58.1115 48.4377L56.7968 49.7287L55.6924 51.2779L55.0613 52.5688L54.2725 55.3057L54.1673 56.8033L54.2725 58.3008L55.0613 61.0377L55.6924 62.277L56.7968 63.8262L58.1115 65.1172L59.6892 66.2016L60.9514 66.8729L63.7386 67.5959L65.2637 67.6992L66.8414 67.5959L69.6287 66.8729L70.8908 66.2016L72.4685 65.1172L73.7833 63.8262L74.8876 62.277L75.5187 61.0377L76.3076 58.3008L76.4127 56.8033L76.3076 55.3057L75.5187 52.5688L74.8876 51.2779L73.7833 49.7287L72.4685 48.4377L70.8908 47.3533L69.6287 46.7336L66.8414 45.959L65.2637 45.8557Z" fill="#6E6E96"/>
<path d="M64.7378 34.9598L62.1609 35.1148L59.6892 35.4762L57.3227 36.0959L55.0613 36.9221L52.8526 37.9549L50.8542 39.1426L48.9084 40.5369L47.1729 42.1377L45.5426 43.8934L44.1227 45.7525L42.9131 47.7664L41.8088 49.8836L41.0199 52.1041L40.3888 54.4279L40.0207 56.8549L39.8629 59.3853L40.0207 61.3475L40.3888 63.5164L41.0725 66.0467L42.4398 69.7648L44.2805 73.7926L48.698 81.9516L53.694 89.6459L58.4797 96.1525L62.4239 100.645L63.5809 101.73L64.7378 102.298L65.5267 102.143L66.5785 101.626L67.9458 100.645L69.8916 98.8377L72.2582 96.1525L74.5195 93.209L79.3578 85.9279L83.8279 77.8721L85.7211 73.7926L87.3514 69.7648L88.5609 66.0467L89.1394 63.5164L89.6127 59.3853L89.455 56.8549L89.0868 54.4279L88.5084 52.1041L87.6669 49.8836L86.6151 47.7664L85.353 45.7525L83.9331 43.8934L82.3028 42.1377L80.5673 40.5369L78.6741 39.1426L76.6231 37.9549L74.4143 36.9221L72.153 36.0959L69.7864 35.4762L67.3147 35.1148L64.7378 34.9598ZM65.2637 65.3238L63.5283 65.1172L61.9506 64.7041L60.4781 64.0328L59.1633 63.1033L58.0064 61.9672L57.0598 60.6762L56.3761 59.2303L55.9028 57.6295L55.745 55.9254L55.9028 54.2213L56.3761 52.6721L57.0598 51.2262L58.0064 49.8836L59.1633 48.7992L60.4781 47.8697L61.9506 47.1467L63.5283 46.7336L65.2637 46.5787L67.0518 46.7336L68.6295 47.1467L70.102 47.8697L71.4167 48.7992L72.5737 49.8836L73.5203 51.2262L74.204 52.6721L74.6773 54.2213L74.8351 55.9254L74.6773 57.6295L74.204 59.2303L73.5203 60.6762L72.5737 61.9672L71.4167 63.1033L70.102 64.0328L68.6295 64.7041L67.0518 65.1172L65.2637 65.3238Z" fill="#FF9C9C"/>
<path d="M64.7378 103.072L63.6335 102.659L62.7394 101.988L61.4247 100.748L58.3219 97.1852L53.3785 90.5754L48.0143 82.2615L45.0167 76.9426L42.1243 70.9525L40.9147 67.8541L39.9681 64.9107L39.1793 61.0893L39.0741 59.3852L39.2319 56.8033L39.6 54.2729L40.2311 51.8975L41.1251 49.6254L42.1769 47.4049L43.4916 45.3393L44.9641 43.377L46.5944 41.5697L48.4351 39.9689L50.3809 38.5229L52.4845 37.2836L54.7458 36.1992L57.1123 35.3213L59.5315 34.7533L62.1084 34.3402L64.7378 34.1852L67.4199 34.3402L69.9442 34.7533L72.3633 35.3213L74.7299 36.1992L76.9912 37.2836L79.0948 38.5229L81.0406 39.9689L82.8813 41.5697L84.5115 43.377L85.9841 45.3393L87.2988 47.4049L88.4032 49.6254L89.2446 51.8975L89.8757 54.2729L90.2438 56.8033L90.4016 59.3852L90.2964 61.4508L89.8757 63.8779L89.1394 66.7697L87.0884 72.6049L85.6159 75.9615L82.145 82.6746L80.0414 86.2893L76.2024 92.1762L72.0478 97.5984L69.9442 99.9221L68.051 101.575L66.7362 102.452L65.6845 102.917L64.7378 103.072ZM64.7378 35.7344L62.2661 35.8893L59.847 36.2508L57.5856 36.8189L55.3769 37.5934L53.2733 38.6262L51.2749 39.8139L49.4343 41.1566L47.7514 42.7057L46.1737 44.3582L44.8064 46.1656L43.5968 48.1279L42.545 50.1934L41.7562 52.3623L41.1777 54.6344L40.8096 56.9582L40.6518 59.3852L40.8096 61.2443L41.2303 63.4648L42.9131 68.6803L45.7004 74.877L48.3299 79.7311L51.643 85.1533L57.4279 93.5189L62.1609 99.2508L63.5283 100.645L64.7904 101.523L65.4215 101.368L66.4207 100.852L67.8932 99.6639L70.8382 96.6172L75.5187 90.4721L80.5147 82.4164L84.0382 75.5484L86.9307 68.5254L88.4558 63.1033L88.8239 59.3852L88.6661 56.9582L88.298 54.6344L87.7195 52.3623L86.9307 50.1934L85.8789 48.1279L84.7219 46.1656L83.302 44.3582L81.7769 42.7057L80.0414 41.1566L78.2008 39.8139L76.2024 38.6262L74.0988 37.5934L71.89 36.8189L69.6287 36.2508L67.2621 35.8893L64.7378 35.7344ZM65.2637 66.0984L63.4231 65.8918L61.6876 65.427L60.0574 64.7041L58.6374 63.6713L57.4279 62.4836L56.3761 61.0377L55.5872 59.4885L55.1665 57.7844L54.9562 55.9254L55.1665 54.118L55.5872 52.4139L56.3761 50.8131L57.4279 49.4188L58.6374 48.1795L60.0574 47.1984L61.6876 46.4238L63.4231 45.959L65.2637 45.8041L67.157 45.959L68.8924 46.4238L70.4701 47.1984L71.9426 48.1795L73.1522 49.4188L74.204 50.8131L74.9402 52.4139L75.4135 54.118L75.6239 55.9254L75.5187 57.268L74.8351 59.7984L73.4677 62.0705L72.5737 63.1033L71.5745 63.9811L69.2605 65.3238L66.6837 65.9951L65.2637 66.0984ZM65.2637 47.3533L63.686 47.5082L62.2135 47.8697L60.8988 48.541L59.6366 49.3672L58.5849 50.4L57.7434 51.5877L57.1123 52.9303L56.6916 54.3762L56.5339 55.9254L56.6916 57.5262L57.1123 58.9205L57.7434 60.2631L58.5849 61.4508L59.6366 62.4836L60.8988 63.3615L62.2135 63.9811L63.686 64.3943L65.2637 64.5492L66.9992 64.3426L68.6295 63.8779L70.1546 63.1033L71.4693 62.0189L72.5737 60.6762L73.3625 59.2303L73.8358 57.6295L74.0462 55.9254L73.8884 54.3762L73.4677 52.9303L72.8366 51.5877L71.9426 50.4L70.9434 49.3672L69.6813 48.541L68.3665 47.8697L66.894 47.5082L65.2637 47.3533Z" fill="#6E6E96"/>
<path d="M83.9856 49.5738L84.7745 50.7098L85.4056 52.0008L85.8263 53.55L86.0892 55.2541L86.1418 57.6295L85.8789 60.2631L85.2478 63.2582L84.3538 66.2016L83.039 69.3516L81.3562 72.8115L79.4103 76.1164L77.0964 79.5762L74.3091 83.2426L71.3115 86.7024L67.9458 90.2139L64.0542 93.777L63.7386 93.8287L63.1601 93.6221L60.5833 91.2467L56.2709 86.0311L51.3275 79.1115L46.4366 71.3139L44.2279 67.3893L42.2821 63.4647L40.757 59.9016L40.9147 61.9156L41.2829 64.0328L41.9139 66.4598L43.2287 70.0229L45.0167 73.9475L47.0151 77.8721L49.2765 81.8484L54.1147 89.2844L58.7426 95.5844L62.5291 99.8705L63.686 100.903L64.7904 101.523L65.5267 101.368L66.5785 100.852L67.8932 99.8705L69.7339 98.1147L71.9952 95.5844L76.6231 89.2844L78.8844 85.6697L83.1968 77.8721L85.0374 73.9475L86.5625 70.0229L87.7721 66.4598L88.6661 61.9156L88.7713 60.0565L88.6135 58.7656L87.6143 56.0287L83.9856 49.5738Z" fill="#E08080" fill-opacity="0.45"/>
<path d="M66.9992 37.8517L70.5227 38.2131L72.2582 38.6779L74.8876 39.5557L77.3068 40.6918L79.6207 42.0861L81.6191 43.532L78.6741 40.6402L76.9912 39.4008L73.31 37.4385L71.3116 36.7156L69.2606 36.1992L67.1044 35.8894L64.843 35.7344L62.4239 35.8894L60.0574 36.3025L57.7434 36.9738L55.4821 37.8517L53.3259 38.9361L51.2223 40.2271L49.2765 41.7246L47.4884 43.3254L45.8582 45.1328L44.4382 47.0435L43.2287 49.109L42.2295 51.2262L41.5458 53.4467L41.0725 55.7705L40.9147 58.0943L41.0725 59.9533L41.5458 62.0189L42.3347 64.3943L44.5434 69.1967L48.3299 75.5484L50.9068 79.2664L56.2183 86.1344L60.8988 91.4533L64.1594 94.3967L59.7418 89.1295L54.7458 82.468L52.3267 78.8017L48.7506 72.2435L46.647 66.9246L45.9108 64.1877L45.49 61.5541L45.3323 58.9721L45.4374 56.4935L45.753 54.2213L46.2789 52.1041L47.0151 50.1418L47.9617 48.2312L49.0135 46.5271L50.2757 44.9262L51.643 43.4803L54.851 41.1049L58.5323 39.2976L62.5817 38.2648L66.9992 37.8517Z" fill="#FFADAD"/>
<path d="M6.52114 118.564L5.78488 122.179H125.163L124.48 118.564H6.52114Z" fill="#6E6E96" fill-opacity="0.15"/>
<path d="M30.6072 13.6328L30.3968 11.8771L29.9761 10.3795L29.2399 8.98526L28.2407 7.74592L27.0837 6.66149L25.6638 5.78363L24.1387 5.11231L22.5084 4.6992L20.6677 4.54428L19.1426 4.6992L17.6701 4.9574L15.0407 6.1451L12.9371 7.95248L12.0956 9.0369L11.4646 10.2246L11.0438 11.5156L9.51874 11.5672L7.62551 12.1869L6.04782 13.3746L5.04862 14.9238L4.68049 16.7828L5.04862 18.5902L3.94424 20.5008L3.68129 21.5853L3.57611 22.7213L3.73388 24.0123L4.04942 25.1484L4.6279 26.2844L5.41675 27.2656L6.31077 28.0918L7.41515 28.8148L8.57213 29.3312L9.88687 29.6926L11.3068 29.8476H26.5052L28.2407 29.6926L29.8183 29.3312L31.2909 28.6599L32.6056 27.8336L33.7626 26.8008L34.6566 25.6131L35.3928 24.3221L35.8136 22.8762L35.9713 21.3271L35.761 19.6746L35.2877 18.1254L34.4462 16.7312L33.3944 15.4918L32.1323 14.459L30.6072 13.6328Z" fill="#006183"/>
<path d="M26.5052 30.6221H11.3068L9.67651 30.4156L8.25658 30.0541L6.94184 29.4344L5.78487 28.6598L4.78567 27.7303L3.94423 26.5943L3.31316 25.4066L2.94503 24.1156L2.78726 22.7213L2.94503 21.2238L3.41834 19.7779L4.15459 18.4353L3.89164 16.7828L3.99682 15.6984L4.31236 14.7172L5.41674 12.9098L7.1522 11.5672L8.15141 11.1025L10.4653 10.6894L10.9912 9.39837L11.7275 8.15903L12.6215 7.0746L14.8829 5.31886L17.6175 4.1828L19.0901 3.87296L20.6677 3.76968L22.6136 3.9246L24.349 4.38936L25.9793 5.06067L27.4518 5.99018L28.714 7.12624L29.7657 8.41722L30.6072 9.86313L31.1331 11.4123L31.396 13.1164L32.9211 14.0976L34.2359 15.2336L35.2877 16.5762L36.0765 18.0738L36.5498 19.623L36.7602 21.3271L36.6024 23.0312L36.1291 24.5803L35.3402 26.0262L34.341 27.3172L33.1315 28.4017L31.659 29.3312L30.0813 30.0541L28.3984 30.4672L26.5052 30.6221ZM11.412 29.073H26.5052L28.0829 28.918L29.5554 28.5566L30.8701 27.9885L32.1323 27.2139L33.1315 26.3361L33.9729 25.2517L34.6566 24.0123L35.0247 22.7213L35.1825 21.3271L35.0247 19.8812L34.5514 18.4869L33.8152 17.1959L32.8685 16.0598L31.7116 15.1303L29.9235 14.0459L29.6606 12.032L29.2399 10.6894L28.5562 9.39837L27.6622 8.26231L26.5578 7.28116L25.2956 6.45493L23.8757 5.83526L22.3506 5.47378L20.6677 5.31886L17.9857 5.73198L15.5665 6.76477L13.5681 8.41722L12.8319 9.39837L11.5171 12.1353L9.2032 12.4451L7.99364 12.8582L6.94184 13.5812L6.153 14.5107L5.78487 15.2336L5.46933 16.7828L5.78487 18.6935L4.94344 20.191L4.52272 21.4303L4.36495 22.7213L4.47013 23.8574L4.78567 24.8902L5.99523 26.7492L7.83587 28.1435L10.0446 28.918L11.412 29.073Z" fill="#CCCCDE"/>
<path d="M103.602 118.564L107.704 118.461L111.7 117.893L113.804 117.325L115.908 116.498L118.432 115.001L119.536 114.02L120.483 112.935L121.272 111.644L121.85 110.198L122.166 108.598L122.218 106.79L122.008 104.621L124.48 118.564H103.602Z" fill="#6E6E96" fill-opacity="0.1"/>
<path d="M87.2988 118.564L88.9291 116.705L90.4016 115.466L92.9785 114.02L94.714 113.348L96.5546 112.832L98.6582 112.522L103.812 112.264L106.231 111.954L108.598 111.438L110.859 110.663L112.91 109.682L114.751 108.494L116.433 107.1L117.853 105.499L119.01 103.692L119.694 102.194L120.167 100.593L120.483 98.8377L120.588 96.9271L124.48 118.564H87.2988Z" fill="#6E6E96" fill-opacity="0.05"/>
</svg>
