<svg width="16" height="16" viewBox="0 0 16 16" fill="none" xmlns="http://www.w3.org/2000/svg">
<path d="M3.04346 11.2174C3.04346 11.8455 3.16716 12.4674 3.40751 13.0476C3.64786 13.6279 4.00014 14.1551 4.44425 14.5992C4.88836 15.0433 5.41559 15.3956 5.99584 15.6359C6.57609 15.8763 7.198 16 7.82607 16C8.45413 16 9.07604 15.8763 9.65629 15.6359C10.2365 15.3956 10.7638 15.0433 11.2079 14.5992C11.652 14.1551 12.0043 13.6279 12.2446 13.0476C12.485 12.4674 12.6087 11.8455 12.6087 11.2174C12.6087 9.94897 12.1048 8.73249 11.2079 7.83558C10.311 6.93866 9.09449 6.43478 7.82607 6.43478C6.55764 6.43478 5.34116 6.93866 4.44425 7.83558C3.54734 8.73249 3.04346 9.94897 3.04346 11.2174Z" fill="#FFC83A"/>
<path d="M7.82614 4.34783C7.08701 4.34783 6.52179 3.78261 6.52179 3.04348V1.30435C6.52179 0.565217 7.08701 0 7.82614 0C8.56527 0 9.13049 0.565217 9.13049 1.30435V3.04348C9.13049 3.73913 8.56527 4.34783 7.82614 4.34783Z" fill="#005470"/>
<path d="M12.7826 13.2174H2.86954C1.99997 13.2174 1.30432 12.5218 1.30432 11.6522V7.91307C1.30432 4.30437 4.21737 1.39133 7.82606 1.39133C11.4348 1.39133 14.3478 4.30437 14.3478 7.91307V11.6522C14.3478 12.5218 13.6521 13.2174 12.7826 13.2174Z" fill="#005470"/>
<path d="M14.3478 13.2174H1.30435C0.565217 13.2174 0 12.6522 0 11.913C0 11.1739 0.565217 10.6087 1.30435 10.6087H14.3478C15.087 10.6087 15.6522 11.1739 15.6522 11.913C15.6522 12.6522 15.087 13.2174 14.3478 13.2174Z" fill="#005470"/>
</svg>
