<svg width="20" height="16" viewBox="0 0 20 16" fill="none" xmlns="http://www.w3.org/2000/svg">
<path d="M18.1951 1.35925H15.6053V0.237682C15.6053 0.106462 15.4989 0 15.3677 0H14.412C14.2808 0 14.1743 0.106462 14.1743 0.237682V1.35925H5.87522V0.237682C5.87522 0.106462 5.76875 0 5.63753 0H4.68185C4.55063 0 4.44417 0.106462 4.44417 0.237682V1.35925H1.80738C0.812082 1.35925 0 2.16885 0 3.16663V14.1372C0 15.1325 0.809606 15.9445 1.80738 15.9445H18.1926C19.1879 15.9445 20 15.1349 20 14.1372V3.16663C20 2.16885 19.1904 1.35925 18.1951 1.35925ZM18.3684 11.6489C18.3684 13.2978 17.0314 14.6323 15.385 14.6323H4.15697C2.76306 14.6323 1.63159 13.5009 1.63159 12.107V5.45432H18.3684V11.6489Z" fill="#33A6B8"/>
<path d="M9.70287 13.1295H9.99254C12.1094 13.1072 13.8177 11.384 13.8177 9.26221C13.8177 7.98961 12.7878 6.95966 11.5152 6.95966C10.7675 6.95966 10.1238 7.41521 9.84894 8.06141C9.57412 7.41274 8.9304 6.95966 8.18269 6.95966C6.9101 6.95966 5.88014 7.98961 5.88014 9.26221C5.87519 11.384 7.58601 13.1072 9.70287 13.1295Z" fill="#FFC53B"/>
</svg>
