<svg width="17" height="20" viewBox="0 0 17 20" fill="none" xmlns="http://www.w3.org/2000/svg">
<path d="M8.70287 15.1295H8.99254C11.1094 15.1072 12.8177 13.384 12.8177 11.2622C12.8177 9.98961 11.7878 8.95966 10.5152 8.95966C9.76749 8.95966 9.12376 9.41521 8.84894 10.0614C8.57412 9.41274 7.9304 8.95966 7.18269 8.95966C5.9101 8.95966 4.88014 9.98961 4.88014 11.2622C4.87519 13.384 6.58601 15.1072 8.70287 15.1295Z" fill="#B60005"/>
<path d="M2.82391 2.90696V19.4114C2.82391 19.9216 3.4409 20.1945 3.80872 19.8386L8.29376 15.6739C9.13619 14.8908 10.4414 14.8908 11.2957 15.6739L15.7807 19.8386C16.1604 20.1827 16.7655 19.9216 16.7655 19.4114V2.90696C16.7655 2.76458 16.6468 2.65779 16.5163 2.65779H3.07308C2.9307 2.65779 2.82391 2.77644 2.82391 2.90696Z" fill="#33A6B8"/>
<path d="M7.84288 6.26481C7.32081 6.26481 6.8818 6.69196 6.89367 7.22589C6.89367 7.74796 7.32081 8.1751 7.84288 8.1751H14.5586C15.0806 8.1751 15.5197 7.74796 15.5197 7.21402C15.5197 6.69196 15.0925 6.25294 14.5586 6.25294C14.5704 6.26481 7.84288 6.26481 7.84288 6.26481Z" fill="#FFC53B"/>
<path d="M13.3127 0H0.474607C0.213573 0 0 0.213573 0 0.474607V16.9672C0 17.3944 0.498337 17.5723 0.806832 17.3706L1.57807 16.9079C1.67299 16.813 1.72045 16.6943 1.72045 16.5757V2.18319C1.72045 1.92216 1.93402 1.70859 2.19506 1.70859H13.3246C13.5856 1.70859 13.7992 1.49501 13.7992 1.23398V0.474607C13.7873 0.213573 13.5738 0 13.3127 0Z" fill="#BBE2FF"/>
<path d="M12.8262 10.4176C12.3042 10.4176 11.8651 10.8448 11.877 11.3787C11.877 11.9008 12.3042 12.3279 12.8262 12.3279H14.5585C15.0806 12.3279 15.5196 11.9008 15.5196 11.3668C15.5196 10.8448 15.0925 10.4058 14.5585 10.4058C14.5704 10.4176 12.8262 10.4176 12.8262 10.4176Z" fill="white"/>
</svg>
