<svg width="20" height="20" viewBox="0 0 20 20" fill="none" xmlns="http://www.w3.org/2000/svg">
<path d="M9.67605 18.5785L0.990013 13.9522C0.912622 13.9093 0.827456 13.8822 0.739484 13.8725C0.651511 13.8628 0.562492 13.8708 0.477621 13.8959C0.392749 13.921 0.313724 13.9627 0.245154 14.0187C0.176585 14.0746 0.119844 14.1437 0.0782413 14.2218C0.0366387 14.2999 0.0110075 14.3855 0.00284281 14.4736C-0.00532191 14.5618 0.00414331 14.6506 0.0306863 14.7351C0.0572293 14.8195 0.100319 14.8978 0.157441 14.9654C0.214563 15.033 0.284575 15.0885 0.363392 15.1288L9.36274 19.9218C9.45919 19.9731 9.56678 20 9.67605 20C9.78532 20 9.89291 19.9731 9.98936 19.9218L10.8226 19.4785C10.4879 19.1682 10.1914 18.8191 9.93936 18.4386L9.67605 18.5785ZM16.1022 9.43254L15.5223 9.73919C15.8288 9.78313 16.1311 9.85339 16.4256 9.94917L16.1022 9.43254ZM2.34325 13.4656L9.18942 17.132C9.22931 17.1515 9.27052 17.1682 9.31274 17.182C9.06104 16.461 8.95929 15.6962 9.01374 14.9345C9.06819 14.1727 9.27769 13.4302 9.62938 12.7523C9.53822 12.7468 9.4489 12.7241 9.36607 12.6856L3.16319 9.55253L1.85662 11.669C1.76391 11.8163 1.70297 11.9813 1.67772 12.1535C1.65247 12.3257 1.66345 12.5013 1.70996 12.669C1.75634 12.8376 1.83635 12.9951 1.94518 13.132C2.05402 13.2689 2.18942 13.3824 2.34325 13.4656ZM15.3956 8.29596L14.0357 6.10945L9.97936 8.18263C9.88506 8.22959 9.78138 8.25466 9.67605 8.25596C9.57057 8.25586 9.46662 8.23073 9.37274 8.18263L5.3097 6.11945L3.88314 8.41262L9.67605 11.3357L15.3956 8.29596Z" fill="#33A6B8"/>
<path d="M9.67598 6.83939L13.3424 4.97286L10.5259 0.473183C10.4362 0.328483 10.3111 0.209074 10.1624 0.126268C10.0136 0.0434618 9.84622 0 9.67598 0C9.50575 0 9.33833 0.0434618 9.18959 0.126268C9.04086 0.209074 8.91572 0.328483 8.82605 0.473183L6.00958 4.98286L9.67598 6.83939ZM14.6756 10.6691C14.2621 10.6709 13.8507 10.7281 13.4524 10.8391C12.3177 11.1549 11.3454 11.8902 10.7325 12.896C10.1196 13.9018 9.91189 15.103 10.1514 16.2562C10.3909 17.4094 11.0598 18.4285 12.0225 19.1071C12.9852 19.7857 14.1698 20.073 15.3365 19.9109C16.5031 19.7487 17.5645 19.1493 18.3057 18.2339C19.0469 17.3186 19.4126 16.1557 19.3286 14.9809C19.2446 13.8061 18.7172 12.7071 17.8533 11.9065C16.9893 11.1059 15.8534 10.6636 14.6756 10.6691ZM14.0657 12.8556C14.0735 12.8478 14.0829 12.8417 14.0932 12.8377C14.1035 12.8336 14.1146 12.8318 14.1257 12.8323H15.2322C15.2433 12.8316 15.2545 12.8333 15.2648 12.8373C15.2752 12.8414 15.2845 12.8476 15.2922 12.8556C15.3002 12.8641 15.3063 12.874 15.3103 12.8849C15.3143 12.8958 15.3161 12.9074 15.3156 12.9189L15.1856 15.9754C15.184 15.9966 15.1746 16.0165 15.1592 16.0313C15.1438 16.0461 15.1236 16.0546 15.1023 16.0554H14.2557C14.2344 16.0546 14.2141 16.0461 14.1987 16.0313C14.1833 16.0165 14.174 15.9966 14.1723 15.9754L14.0423 12.9189C14.0418 12.9074 14.0436 12.8958 14.0476 12.8849C14.0516 12.874 14.0577 12.8641 14.0657 12.8556ZM15.3189 17.4953C15.3037 17.5765 15.2655 17.6517 15.2089 17.7119C15.1484 17.7694 15.0715 17.8067 14.9889 17.8186C14.8863 17.8333 14.7826 17.84 14.679 17.8386C14.573 17.8401 14.4672 17.8335 14.3623 17.8186C14.2799 17.806 14.2032 17.7689 14.1423 17.7119C14.0815 17.653 14.0417 17.5757 14.029 17.4919C14.0023 17.2839 14.0023 17.0733 14.029 16.8653C14.0417 16.7816 14.0815 16.7043 14.1423 16.6453C14.2041 16.5897 14.2804 16.5527 14.3623 16.5387C14.4672 16.5238 14.573 16.5171 14.679 16.5187C14.7826 16.5173 14.8863 16.524 14.9889 16.5387C15.0739 16.5486 15.153 16.5869 15.2135 16.6474C15.274 16.7079 15.3123 16.787 15.3222 16.872C15.34 16.9743 15.3478 17.0781 15.3456 17.182C15.3464 17.287 15.3375 17.3919 15.3189 17.4953Z" fill="#FFC53B"/>
</svg>
