<svg width="20" height="16" viewBox="0 0 20 16" fill="none" xmlns="http://www.w3.org/2000/svg">
<path d="M18.1951 1.35925H15.6053V0.237682C15.6053 0.106462 15.4989 0 15.3677 0H14.412C14.2808 0 14.1743 0.106462 14.1743 0.237682V1.35925H5.87522V0.237682C5.87522 0.106462 5.76875 0 5.63753 0H4.68185C4.55063 0 4.44417 0.106462 4.44417 0.237682V1.35925H1.80738C0.812082 1.35925 0 2.16885 0 3.16663V14.1372C0 15.1325 0.809606 15.9445 1.80738 15.9445H18.1926C19.1879 15.9445 20 15.1349 20 14.1372V3.16663C20 2.16885 19.1904 1.35925 18.1951 1.35925ZM18.3684 11.6489C18.3684 13.2978 17.0314 14.6323 15.385 14.6323H4.15697C2.76306 14.6323 1.63159 13.5009 1.63159 12.107V5.45432H18.3684V11.6489Z" fill="#33A6B8"/>
<path d="M6 10.18C6 10.6396 6.09053 11.0948 6.26642 11.5194C6.44231 11.944 6.70012 12.3299 7.02513 12.6549C7.35013 12.9799 7.73597 13.2377 8.16061 13.4136C8.58525 13.5895 9.04037 13.68 9.5 13.68C9.95963 13.68 10.4148 13.5895 10.8394 13.4136C11.264 13.2377 11.6499 12.9799 11.9749 12.6549C12.2999 12.3299 12.5577 11.944 12.7336 11.5194C12.9095 11.0948 13 10.6396 13 10.18C13 9.25174 12.6313 8.3615 11.9749 7.70513C11.3185 7.04875 10.4283 6.68 9.5 6.68C8.57174 6.68 7.6815 7.04875 7.02513 7.70513C6.36875 8.3615 6 9.25174 6 10.18Z" fill="#FFC53B"/>
<path d="M9.34118 8.66864C9.4005 8.66864 9.45769 8.69074 9.50161 8.73063C9.54552 8.77051 9.573 8.82532 9.5787 8.88437L9.57981 8.90728V10.2595H11.4094C11.4687 10.2596 11.5259 10.2817 11.5698 10.3215C11.6137 10.3614 11.6412 10.4162 11.6469 10.4753L11.648 10.4982C11.648 10.5575 11.6259 10.6147 11.586 10.6586C11.5461 10.7025 11.4913 10.73 11.4323 10.7357L11.4094 10.7368H9.34118C9.28185 10.7368 9.22466 10.7147 9.18075 10.6748C9.13683 10.635 9.10935 10.5801 9.10365 10.5211L9.10254 10.4982V8.90728C9.10254 8.84399 9.12768 8.78329 9.17243 8.73854C9.21719 8.69378 9.27789 8.66864 9.34118 8.66864Z" fill="#006183"/>
</svg>
