<svg width="113" height="20" viewBox="0 0 113 20" fill="none" xmlns="http://www.w3.org/2000/svg">
<path d="M92.7377 7.061V4.27H85.7237V0H82.2927V4.27H75.2687V7.062H82.0067V7.075C81.5979 8.94872 80.7826 10.7098 79.6183 12.2337C78.4539 13.7576 76.9691 15.0071 75.2687 15.894V19.138C78.0857 18.02 82.4057 14.589 84.0037 10.538C85.671 14.4415 88.8089 17.5312 92.7377 19.138V15.893C91.0643 14.9766 89.6012 13.7203 88.4423 12.2048C87.2835 10.6892 86.4545 8.94801 86.0087 7.093V7.061H92.7377Z" fill="#CAEDF1"/>
<path d="M110.087 3.341H109.66L111.232 0H108.256L106.686 3.341H105.197L103.897 0H100.922L102.222 3.341H100.737L99.4367 0H96.4627L97.7627 3.341H94.7897V9.096H97.3347V5.941H110.088V9.095H112.634V3.341H110.087Z" fill="#CAEDF1"/>
<path d="M106.194 11.134C106.102 10.934 106.036 10.827 106.036 10.827L109.474 9.092V6.492H97.9477V9.092H103.738L102.225 10.202C102.473 10.4949 102.699 10.8065 102.9 11.134H94.7907V13.734H103.734C103.718 14.0948 103.64 14.4502 103.502 14.784C102.732 16.344 99.8097 16.347 99.8097 16.347V19.124C99.8097 19.124 104.472 19.447 106.023 16.597C106.526 15.7268 106.792 14.7394 106.794 13.734H112.635V11.134H106.194Z" fill="#CAEDF1"/>
<path d="M69 0.851972H62.878L55.7702 8.85704H55.7183L56.9116 0.851972H51.7494L50.0892 12.0743C49.6222 8.80638 45.8868 8.47706 43.2667 7.81841C41.9438 7.46376 40.3614 7.0331 40.5689 5.69048C40.6986 4.77851 41.84 4.01854 43.0333 4.01854C43.9153 4.01854 44.5638 4.22119 44.927 4.60118C45.342 4.98117 45.4977 5.51315 45.3679 6.22246H50.5302C51.49 1.81461 47.7286 0.471985 43.8893 0.471985C39.9982 0.471985 35.9255 1.66261 35.0954 5.96914C34.81 7.94507 35.4845 9.61702 37.2485 10.4277C41.0358 12.1756 44.9529 11.6436 44.5897 14.1262C44.4081 15.3422 42.1513 15.9501 40.4651 15.9501C38.1824 15.9501 34.836 15.3675 35.8217 11.4916V11.4663H30.4001C29.6738 15.5195 27.0538 15.9501 25.1082 15.9501C22.1769 15.8995 21.1652 13.1382 21.6321 10.149C22.0472 7.41309 23.0848 4.01854 26.0421 4.01854C28.1692 4.01854 29.2847 4.95584 29.1809 6.60245H34.6025C35.3807 1.99194 31.1005 0.471985 26.5868 0.471985C20.7501 0.52265 17.1444 3.84121 16.2364 9.94634C16.1846 10.2757 16.1586 10.605 16.1327 10.9343C15.0432 8.70505 11.9043 8.40106 9.64748 7.79308C8.3245 7.43842 6.74211 7.00777 6.94964 5.66515C7.07934 4.75318 8.22074 3.9932 9.41401 3.9932C10.296 3.9932 10.9445 4.19586 11.3077 4.57585C11.7227 4.95584 11.8784 5.48782 11.7487 6.19713H16.9109C17.8707 1.81461 14.1093 0.471985 10.2701 0.471985C6.353 0.471985 2.30624 1.66261 1.47613 5.96914C1.16484 7.94507 1.86525 9.61702 3.62922 10.4277C7.41657 12.1756 11.3336 11.6436 10.9705 14.1262C10.7889 15.3422 9.18055 15.9501 7.98727 15.9501C6.11953 15.9501 4.97814 15.0128 5.26349 13.2902H0.0753309C-0.573189 18.2301 3.05852 19.4714 7.39063 19.4714C11.5152 19.4714 15.4582 17.8247 16.3143 14.3289C17.1444 17.6728 19.92 19.4714 24.5634 19.4714C26.3533 19.4714 29.6738 19.5727 32.4235 17.1914C34.5247 19.1674 37.8192 19.4714 39.8685 19.4714C44.9788 19.4714 48.3252 18.1794 49.5704 15.4435L49.0256 19.0914H54.2138L55.6405 9.38903H55.6924L60.4136 19.0914H66.821L61.3734 8.88238L69 0.851972Z" fill="#08192C"/>
</svg>
